<?xml version="1.0" standalone="no"?>
<!DOCTYPE svg PUBLIC "-//W3C//DTD SVG 1.1//EN" "http://www.w3.org/Graphics/SVG/1.1/DTD/svg11.dtd" >
<svg xmlns="http://www.w3.org/2000/svg">
<metadata>
This is a custom SVG webfont generated by Font Squirrel.
Copyright   :  1993 2001 2002 Adobe Systems Incorporated All rights reserved
Designer    : Erik Spiekermann
Foundry URL : httpwwwadobecomtype
</metadata>
<defs>
<font id="ITCOfficinaSerifStdBookItalic" horiz-adv-x="1024" >
<font-face units-per-em="2048" ascent="1468" descent="-580" />
<missing-glyph horiz-adv-x="606" />
<glyph unicode=" "  horiz-adv-x="606" />
<glyph unicode="&#x09;" horiz-adv-x="606" />
<glyph unicode="&#xa0;" horiz-adv-x="606" />
<glyph unicode="!" horiz-adv-x="681" d="M115 108.5q0 57.5 40 97.5t97 40q55 0 96 -40t41 -97.5t-41 -97.5t-96 -40q-57 0 -97 40t-40 97.5zM287 557q0 10 2 16l127 805q4 25 28 25h156q20 0 21 -14q0 -4 -5 -25l-215 -799q-4 -16 -8 -19t-22 -3h-62q-22 0 -22 14z" />
<glyph unicode="&#x22;" horiz-adv-x="948" d="M332 1450q0 18 26 18h115q27 0 27 -18q0 -6 -1 -17.5t-1 -15.5l-29 -463q-2 -27 -29 -26h-45q-31 0 -30 26l-31 463q-2 13 -2 33zM635 1450q0 18 27 18h114q27 0 27 -18q0 -6 -1 -17.5t-1 -15.5l-29 -463q-2 -27 -29 -26h-45q-31 0 -30 26l-31 463q-2 13 -2 33z" />
<glyph unicode="#" d="M14 250q0 2 1 6t1 8l19 80q4 25 28 25h142l127 401h-127q-20 0 -21 16q0 2 1 7.5t1 7.5l19 82q6 25 28 24h142l133 416q8 23 31 23h77q20 0 21 -15q0 -6 -4 -18l-129 -406h258l133 416q4 14 9 18.5t22 4.5h75q23 0 23 -15q0 -6 -4 -18l-129 -406h117q20 0 20 -18 q0 -2 -1 -6t-1 -9l-18 -79q-4 -25 -29 -25h-131l-129 -401h119q20 0 20 -19q0 -2 -1 -6t-1 -6l-18 -82q-6 -25 -29 -25h-133l-119 -376q-6 -23 -31 -23h-77q-20 0 -21 14q0 6 4 19l115 366h-258l-119 -376q-6 -23 -31 -23h-78q-20 0 -20 14q0 6 4 19l115 366h-125 q-21 1 -21 19zM332 369h260l127 401h-258z" />
<glyph unicode="$" d="M70 92q0 10 4 15l51 88q4 10 14 10q6 0 21 -8l36 -21q22 -12 42 -20q63 -31 139 -39l112 534l-46 37q-36 29 -53 44.5t-46 47t-43 59t-25.5 69.5t-11.5 89q0 154 114 251.5t259 97.5l18 79q4 23 31 23h53q20 0 21 -16q0 -2 -1 -7.5t-1 -7.5l-19 -71q57 0 150.5 -34 t93.5 -61q0 -2 -6 -14l-53 -86q-6 -8 -19 -8q-8 0 -21 8l-36 21q-23 13 -45 24q-43 18 -90 25l-101 -471q6 -4 39 -30t49.5 -41t46 -49t45 -64.5t29 -77t13.5 -95.5q0 -182 -119 -291.5t-262 -109.5l-23 -113q-4 -23 -31 -22h-53q-18 0 -18 16q0 2 1 7t1 7l20 103 q-78 0 -179 36.5t-101 65.5zM412 989q0 -18 4 -35.5t8 -31t13 -28.5t14.5 -22.5t18.5 -20.5l17 -17q4 -4 21 -17l14 -12l88 412q-198 -44 -198 -228zM479 119q82 12 140.5 81.5t58.5 180.5q0 113 -98 211z" />
<glyph unicode="%" horiz-adv-x="1554" d="M141 879q0 176 97.5 321.5t263.5 145.5q100 0 155.5 -62.5t55.5 -179.5q0 -170 -97.5 -313.5t-259.5 -143.5q-100 0 -157.5 61.5t-57.5 170.5zM274 877q0 -119 95 -119q98 0 154.5 112.5t56.5 241.5q0 123 -91 123q-100 0 -157.5 -113.5t-57.5 -244.5zM360 -18q0 8 9 24 l718 1321q10 18 31 19h88q20 0 21 -15q0 -6 -8 -22l-719 -1319q-8 -18 -35 -19h-82q-23 1 -23 11zM891 203q0 176 97 321.5t263 145.5q100 0 155.5 -62.5t55.5 -179.5q0 -170 -97 -313.5t-259 -143.5q-100 0 -157.5 61.5t-57.5 170.5zM1024 201q0 -119 94 -119 q98 0 154.5 112.5t56.5 241.5q0 123 -90 123q-100 0 -157.5 -113.5t-57.5 -244.5z" />
<glyph unicode="&#x26;" horiz-adv-x="1214" d="M76 297q0 59 15 114.5t34.5 94.5t57.5 79t62.5 62.5t69.5 50t62 35.5l55 29q-2 2 -14 20l-19 28q-6 9 -18 30.5l-20.5 38t-18.5 40t-15 45t-9.5 48t-4.5 53.5q0 182 123 274.5t281 92.5q137 0 214 -78t77 -199q0 -68 -27 -130t-61.5 -104t-88 -82t-91.5 -62l-83 -46 l-16 -8l252 -377q47 66 76.5 133.5t40 108.5t12.5 45q6 8 18 8h107q20 0 20 -12q0 -47 -62.5 -180.5t-137.5 -215.5l108 -161q8 -8 8 -17q0 -10 -16 -22l-84 -56q-12 -6 -16 -6q-12 0 -21 17l-92 141q-57 -45 -95 -69.5t-133.5 -56.5t-199.5 -32q-160 0 -255 83t-95 243z M231 313q0 -106 59.5 -160.5t162.5 -54.5q76 0 148.5 29t99 49.5t79.5 65.5l-276 411q-51 -27 -83 -47t-84 -63t-79 -101.5t-27 -128.5zM469 1077q0 -90 104 -248q2 2 34 19.5t41 23.5l39 26q30 19 42 31l37 33q25 22 36 39l25 42q14 24 19.5 49.5t5.5 52.5q0 72 -40 120 t-118 48q-90 0 -157.5 -63.5t-67.5 -172.5z" />
<glyph unicode="'" horiz-adv-x="342" d="M215 1450q0 18 27 18h114q27 0 27 -18q0 -6 -1 -17.5t-1 -15.5l-29 -463q-2 -27 -28 -26h-45q-31 0 -31 26l-31 463q-2 13 -2 33z" />
<glyph unicode="(" horiz-adv-x="872" d="M213 207q0 410 274 852q63 104 199.5 264t161.5 160q10 0 16 -6l56 -41q10 -10 10 -17q0 -14 -23.5 -35.5t-83 -89t-125.5 -164.5q-154 -227 -237.5 -450t-83.5 -487q0 -164 38 -307.5t75.5 -221.5t37.5 -82q0 -16 -18 -28l-51 -29q-20 -8 -27 -8q-20 0 -71.5 95 t-99.5 265t-48 330z" />
<glyph unicode=")" horiz-adv-x="872" d="M-61 -420q0 14 23.5 36t82.5 89.5t125 163.5q154 227 238 450.5t84 487.5q0 164 -38 307t-76 221t-38 82q0 16 18 29l52 29q20 8 26 8q20 0 71.5 -95.5t99.5 -265.5t48 -329q0 -410 -274 -852q-63 -104 -199.5 -264t-161.5 -160q-10 0 -16 6l-55 41q-10 10 -10 16z" />
<glyph unicode="*" d="M291 1116q2 10 6 23l22 71q8 23 19 23l18 -6l222 -92l-17 206q0 6 -1 20.5t-1 18.5q0 23 21 23h94q20 0 20 -23q0 -4 -1 -18t-1 -21l-16 -206l221 92l18 6q10 0 19 -23l22 -71q4 -12 7 -23q0 -10 -23 -18l-233 -56l155 -184q0 -2 3 -5t5 -7t2 -6q0 -8 -16 -21l-65 -47 q-12 -8 -20.5 -8t-18.5 16l-125 205l-125 -205q-10 -16 -18.5 -16t-20.5 8l-66 47q-16 12 -16 21q0 2 2 6t5 7t3 5l156 184l-234 56q-22 8 -22 18z" />
<glyph unicode="+" d="M45 475v90q0 18 4 23.5t23 5.5h364v360q0 29 27 29h94q27 0 27 -29v-360h364q18 0 23.5 -5t5.5 -24v-90q0 -18 -5 -23.5t-24 -5.5h-364v-364q0 -29 -27 -29h-94q-27 0 -27 29v364h-364q-18 0 -22.5 5.5t-4.5 23.5z" />
<glyph unicode="," horiz-adv-x="606" d="M-12 -213l6 18l168 408q8 20 31 20h174q20 0 20 -12q0 -10 -8 -22l-301 -439q-12 -12 -16.5 -12t-9.5 2t-7 2l-43 21q-2 0 -6 2t-6 5t-2 7z" />
<glyph unicode="-" horiz-adv-x="606" d="M53 459q0 2 6 33l17 79q6 25 30 25h422q20 0 21 -16q0 -2 -6 -33l-17 -80q-6 -25 -30 -25h-422q-21 1 -21 17z" />
<glyph unicode="." horiz-adv-x="606" d="M78 108.5q0 57.5 40 97.5t97 40t97 -40t40 -97.5t-40 -97.5t-97 -40t-97 40t-40 97.5z" />
<glyph unicode="/" horiz-adv-x="985" d="M-190 -399q0 2 6 20l1069 1831q10 16 35 16h96q20 0 20 -12q0 -10 -8 -22l-1069 -1831q-6 -16 -37 -17h-94q-18 1 -18 15z" />
<glyph unicode="0" d="M88 360q0 160 38 328t107.5 317.5t189.5 245t267 95.5q303 0 303 -390q0 -162 -37.5 -329.5t-108.5 -316t-188.5 -244t-259.5 -95.5q-311 0 -311 389zM244 360q0 -125 43 -188t141 -63t180 89t130 222t74 274.5t26 261.5q0 125 -43 188.5t-146 63.5q-98 0 -180 -89 t-129 -223t-71.5 -274.5t-24.5 -261.5z" />
<glyph unicode="1" d="M131 12q0 4 6 33l17 61q6 20 24 21h207l221 1014l-301 -170q-10 -6 -18 -6t-19 18l-28 43q-4 8 -4 14q0 8 12 19l405 246q18 12 39 12h82q18 0 19 -19l-11 -51l-237 -1120h182q16 0 16 -12q0 -4 -6 -33l-16 -62q-4 -20 -25 -20h-549q-16 0 -16 12z" />
<glyph unicode="2" d="M29 16q0 39 28.5 129.5t69.5 157.5q70 115 156 197t200.5 161.5t157.5 116.5q96 84 134 142.5t38 140.5q0 76 -44 111.5t-112 35.5q-72 0 -129 -35.5t-85 -77.5l-50 -78q-23 -36 -33 -36q-2 0 -6 1t-6 1l-82 27q-20 6 -20 18q0 10 15 42t50 79t82 91t122 75t161 31 q135 0 220 -67t85 -196q0 -49 -11.5 -95t-20.5 -77.5t-43 -73.5t-46 -60.5t-65 -60.5l-64 -50q-10 -8 -77.5 -56.5t-73.5 -52.5q-186 -131 -254 -208t-117 -206h561q20 0 21 -16q0 -6 -2.5 -12t-2.5 -11l-18 -79q-4 -25 -29 -25h-694q-16 0 -16 16z" />
<glyph unicode="3" d="M16 61q0 10 9 27l43 86q6 10 14 10q2 0 35 -18.5t95 -37.5t132 -19q152 0 241 100t89 231q0 190 -254 191h-72q-23 0 -22 14q0 10 2 17l18 81q4 25 29 25h74q135 0 228 85t93 214q0 66 -43 103.5t-123 37.5q-68 0 -128 -32.5t-96 -64.5t-46 -32q-6 0 -19 13l-53 57 q-6 6 -6 14q2 14 49 56.5t139.5 84.5t186.5 42q139 0 217 -72t78 -182q0 -125 -80 -233.5t-199 -143.5q41 -18 60.5 -30.5t54.5 -43.5t51 -78t16 -110q0 -199 -143 -340.5t-367 -141.5q-100 0 -201.5 29.5t-101.5 60.5z" />
<glyph unicode="4" d="M39 340q0 10 4 27l16 71q6 25 19 37l706 871q10 14 19 14q4 0 11 -2t11 -2l95 -21q14 -4 14 -14q0 -8 -6 -14l-697 -848h385l95 327q4 23 30 23h72q20 0 21 -18q0 -2 -5 -23l-65 -309h166q20 0 20 -17q0 -10 -2 -14l-18 -84q-4 -23 -31 -22h-166l-63 -297q-6 -25 -29 -25 h-98q-20 0 -21 16q0 6 6 31l58 275h-527q-20 0 -20 18z" />
<glyph unicode="5" d="M61 33q0 8 7 28l22 76q6 20 25 21l86 -25q86 -25 164 -24q160 0 265 121.5t105 287.5q0 90 -47 138.5t-129 48.5q-70 0 -147.5 -35t-100.5 -64q-25 -31 -39 -31q-10 0 -20 5l-57 20q-23 6 -23 18q0 8 12 41l195 635q8 23 31 23h538q20 0 21 -17q0 -4 -4 -24l-17 -78 q-8 -25 -28 -24h-431l-135 -410l4 -4q39 27 59.5 39t70 27.5t102.5 15.5q141 0 221 -82t80 -230q0 -96 -34 -192t-98.5 -179t-172 -135.5t-242.5 -52.5q-66 0 -134.5 11.5t-108.5 26t-40 24.5z" />
<glyph unicode="6" d="M117 295q0 178 51 362.5t140 338t228.5 252t299.5 98.5q207 0 206 -33q0 -8 -8 -25l-30 -67q-16 -31 -25 -31q-10 0 -53 9t-84 9q-303 0 -471 -430l4 -4q111 127 262 127q139 0 202.5 -87t63.5 -261q0 -231 -130 -406.5t-357 -175.5q-133 0 -216 84t-83 240zM272 283 q0 -174 170 -174q98 0 171 75.5t104 173t31 193.5t-40 154.5t-124 58.5q-152 0 -232 -140t-80 -341z" />
<glyph unicode="7" d="M137 6q0 8 8 21l691 1147h-539q-20 0 -21 14q0 8 5 24l16 80q4 25 31 25h700q20 0 21 -19q0 -4 -5 -20l-6 -25q-6 -25 -14 -39l-717 -1224q-12 -18 -24 -19q-2 0 -8.5 1t-8.5 1l-112 19q-17 4 -17 14z" />
<glyph unicode="8" d="M47 285q0 98 39 176t102.5 124t121 72.5t118.5 42.5q-47 31 -79 56.5t-67.5 88t-35.5 140.5q0 172 120.5 266.5t290.5 94.5q332 0 332 -267q0 -66 -23.5 -125t-54 -96t-79 -72.5t-77 -51t-69.5 -34.5q223 -111 223 -315q0 -176 -134 -295t-341 -119q-176 0 -281.5 79 t-105.5 235zM203 303q0 -92 64.5 -143t176.5 -51q133 0 221.5 70.5t88.5 193.5q0 31 -7.5 58.5t-16.5 47t-27.5 40t-31 30.5t-37 25.5t-33.5 19.5t-34.5 16.5t-27.5 12.5q-182 -61 -256 -136q-80 -78 -80 -184zM401 999q0 -33 10.5 -62.5t21.5 -49t33.5 -43t35.5 -32.5 l39 -29q27 -19 28 -21q49 23 75 37t82 52t86 89t30 113q0 76 -51.5 115.5t-141.5 39.5q-113 0 -180.5 -58.5t-67.5 -150.5z" />
<glyph unicode="9" d="M94 10q0 4 4 25l15 74q2 18 20 18q8 0 49 -9t78 -9q66 0 123 19t99 46t82 76t63.5 84t51.5 95t38 87l31 82l-5 4q-113 -174 -292 -174q-115 0 -192 88t-77 246q0 231 130 407.5t358 176.5q299 0 299 -326q0 -141 -28 -286.5t-87 -283t-140 -244t-198 -171t-250 -64.5 q-172 0 -172 39zM338 764q0 -199 166 -199q150 0 229.5 135.5t79.5 331.5q0 80 -40 128t-122 48q-102 0 -177 -75.5t-105.5 -173t-30.5 -195.5z" />
<glyph unicode=":" horiz-adv-x="606" d="M78 108.5q0 57.5 40 97.5t97 40t97 -40t40 -97.5t-40 -97.5t-97 -40t-97 40t-40 97.5zM227 845.5q0 57.5 40 97.5t97.5 40t97.5 -40t40 -97.5t-40 -97t-97.5 -39.5t-97.5 39.5t-40 97z" />
<glyph unicode=";" horiz-adv-x="606" d="M-16 -213l6 18l168 408q8 20 30 20h174q20 0 21 -12q0 -10 -8 -22l-301 -439q-12 -12 -16.5 -12t-9.5 2t-7 2l-43 21q-2 0 -6 2t-6 5t-2 7zM242 845.5q0 57.5 40 97.5t97 40t97 -40t40 -97.5t-40 -97t-97 -39.5t-97 39.5t-40 97z" />
<glyph unicode="&#x3c;" d="M49 471v98q0 12 3 18.5t5 7.5t15 5l827 299q4 0 11.5 3t11.5 3q14 0 20 -20l33 -94q4 -4 4 -15q0 -12 -18 -20l-660 -234v-4l660 -235q18 -8 18 -21q0 -10 -4 -14l-33 -94q-6 -20 -20 -21q-8 0 -23 6l-827 299q-10 2 -13.5 4t-6.5 9.5t-3 19.5z" />
<glyph unicode="=" d="M45 334v90q0 18 4 23.5t23 5.5h876q18 0 23.5 -5.5t5.5 -23.5v-90q0 -18 -5 -23.5t-24 -5.5h-876q-18 0 -22.5 5.5t-4.5 23.5zM45 614v91q0 18 4 23t23 5h876q18 0 23.5 -5t5.5 -23v-91q0 -18 -5 -23t-24 -5h-876q-18 0 -22.5 5t-4.5 23z" />
<glyph unicode="&#x3e;" d="M70 262q0 12 18 21l660 233v4l-660 236q-18 8 -18 20q0 10 4 15l32 94q6 20 21 20q9 0 23 -6l827 -299q10 -2 13 -4t6 -9t3 -20v-98q0 -12 -3 -18.5t-5 -7.5t-14 -5l-827 -299q-4 0 -11.5 -3t-11.5 -3q-14 0 -21 21l-32 94q-4 4 -4 14z" />
<glyph unicode="?" horiz-adv-x="948" d="M199 108.5q0 57.5 40 97.5t97 40q55 0 96 -40t41 -97.5t-41 -97.5t-96 -40q-57 0 -97 40t-40 97.5zM303 1341q0 29 114.5 60t203.5 31q137 0 224 -69t87 -200q0 -94 -39 -171t-101.5 -124t-126 -74.5t-126.5 -37.5l-41 -195q-6 -20 -25 -20h-100q-16 0 -17 12q0 4 6 33 l52 237q4 20 16 28.5t50 17t63 18.5q113 41 167 95t54 155q0 158 -176 157q-51 0 -106.5 -13t-92.5 -26.5t-43 -13.5q-14 0 -18 14l-19 64q-6 16 -6 22z" />
<glyph unicode="@" horiz-adv-x="1933" d="M158 369q0 272 130 497.5t352 354.5t486 129q313 0 499.5 -162t186.5 -443q0 -287 -163.5 -466t-341.5 -179q-166 0 -172 185h-4q-125 -182 -281 -183q-84 0 -130 63.5t-46 170.5q0 76 21.5 165t63.5 177t115.5 145.5t165.5 57.5q47 0 84 -16.5t46 -26.5l36 -39l21 49 q6 12 20 12h92q12 0 13 -10q0 -2 -2 -10.5t-2 -12.5l-99 -458q-6 -29 -6 -54q0 -102 84 -102q127 0 239.5 147.5t112.5 380.5q0 225 -143 357.5t-408 132.5q-346 0 -587.5 -246t-241.5 -610q0 -291 161 -454t478 -163q170 0 320.5 40t233.5 80t85 40q14 0 20 -16l25 -60 q4 -10 4 -16q0 -51 -249 -118.5t-464 -67.5q-356 0 -555.5 198.5t-199.5 530.5zM821 342q0 -113 74 -113q86 0 180 121q20 27 42 87.5t26 86.5l35 168q-82 70 -146 70q-68 0 -119 -82t-71.5 -174t-20.5 -164z" />
<glyph unicode="A" horiz-adv-x="1175" d="M-80 12q0 4 6 33l17 61q4 20 24 21h84l649 1257q10 18 33 19h103q16 0 20 -4t8 -23l115 -1249h108q16 0 17 -12q0 -4 -6 -33l-17 -62q-4 -20 -24 -20h-387q-16 0 -17 12q0 4 6 33l17 61q4 20 24 21h119l-24 295h-437l-147 -295h129q16 0 16 -12q0 -4 -6 -33l-16 -62 q-6 -20 -25 -20h-372q-17 0 -17 12zM426 559h356l-34 455q-6 74 -7 194h-4q-35 -96 -82 -194z" />
<glyph unicode="B" horiz-adv-x="1099" d="M-59 12.5q0 12.5 6 32.5l16 61q4 20 25 21h135l244 1149h-138q-16 0 -16 12q0 4 6 33l17 61q6 20 24 21h404q72 0 111.5 -2t104 -15.5t100.5 -38t63.5 -76.5t27.5 -126q0 -162 -87 -265.5t-196 -142.5v-4q25 -6 51.5 -20.5t60.5 -42t55.5 -80.5t21.5 -121 q0 -117 -58.5 -229.5t-158.5 -173.5q-49 -31 -113.5 -46.5t-111 -17.5t-134.5 -2h-444q-16 0 -16 12.5zM287 137h180q141 0 227 70q115 94 115 256q0 182 -236 182h-180zM424 782h129q160 0 229 68q121 115 121 252q0 94 -49 129t-131 35h-197z" />
<glyph unicode="C" horiz-adv-x="948" d="M104 387q0 172 37 348t109 336t197.5 260.5t285.5 100.5q104 0 203.5 -49.5t99.5 -92.5q0 -6 -2 -14t-2 -10l-47 -211q-6 -20 -24 -21h-95q-16 0 -16 13q0 6 4 22l37 172q-106 53 -178 53q-109 0 -198 -98t-139 -246.5t-77 -300t-27 -278.5t55.5 -194.5t153.5 -67.5 q84 0 203 77l37 172q2 23 24 23h95q16 0 16 -19l-6 -36l-39 -183q-6 -35 -20 -43q-180 -129 -357 -129q-156 0 -243 106.5t-87 309.5z" />
<glyph unicode="D" horiz-adv-x="1175" d="M-43 12q0 4 6 33l17 61q4 20 24 21h135l244 1149h-137q-16 0 -17 12q0 4 7 33l16 61q6 20 24 21h379q63 0 101.5 -1t94.5 -9.5t91 -23.5t75 -44t61.5 -70t36.5 -104.5t15 -142.5q0 -158 -48 -354.5t-134 -362.5q-84 -158 -221 -224.5t-332 -66.5h-422q-16 0 -16 12z M305 137h141q190 0 304 142q92 106 152.5 335.5t60.5 395.5q0 86 -20.5 140t-63.5 77.5t-83 31t-104 7.5h-149z" />
<glyph unicode="E" d="M-43 12q0 4 6 33l17 61q4 20 24 21h135l244 1149h-137q-16 0 -17 12q0 4 7 33l16 61q6 20 24 21h797q20 0 21 -14q0 -4 -2 -10.5t-2 -10.5l-58 -270q-6 -23 -24 -23h-95q-16 0 -16 12q0 2 1 7.5t1 9.5l33 162h-389l-101 -469h426q20 0 21 -17q0 -10 -2 -14l-17 -82 q-4 -25 -30 -25h-426l-111 -522h406l39 195q4 23 26 22h94q16 0 17 -12q0 -10 -2 -14l-64 -303q-6 -25 -31 -25h-815q-16 0 -16 12z" />
<glyph unicode="F" horiz-adv-x="909" d="M-66 12q0 4 7 33l16 61q6 20 25 21h135l243 1149h-137q-16 0 -16 12q0 4 6 33l16 61q4 20 25 21h782q20 0 21 -14q0 -4 -2 -10.5t-2 -10.5l-58 -270q-6 -23 -24 -23h-94q-16 0 -17 10q0 4 1 10.5t1 8.5l33 162h-375l-96 -469h407q20 0 21 -17q0 -10 -2 -14l-16 -82 q-4 -25 -31 -25h-410l-112 -532h161q16 0 17 -14q0 -2 -1 -7.5t-1 -7.5l-17 -78q-6 -20 -24 -20h-465q-17 0 -17 12z" />
<glyph unicode="G" horiz-adv-x="1099" d="M104 387q0 172 37 348t109 336t197.5 260.5t285.5 100.5q113 0 217.5 -45.5t104.5 -86.5q0 -6 -2 -14t-2 -10l-45 -201q-6 -20 -25 -20h-94q-16 0 -17 10q0 8 4 25l35 151q-115 53 -196 53q-109 0 -198 -98t-139 -246.5t-77 -300t-27 -278.5q0 -129 57.5 -195.5 t162.5 -66.5q106 0 196 28l88 445h-162q-16 0 -16 12q0 4 6 33l17 61q6 20 24 21h451q16 0 16 -12.5t-6 -32.5l-16 -62q-4 -20 -25 -20h-129l-100 -482q-6 -33 -23 -43q-135 -86 -338 -86q-170 0 -270.5 107.5t-100.5 308.5z" />
<glyph unicode="H" horiz-adv-x="1251" d="M-39 12q0 4 6 33l17 61q4 20 24 21h135l244 1149h-137q-16 0 -17 12q0 4 7 33l16 61q6 20 25 21h432q16 0 16 -12q0 -4 -6 -33l-16 -62q-6 -20 -25 -20h-135l-103 -479h478l102 479h-137q-16 0 -17 12q0 4 7 33l16 61q4 20 25 21h432q16 0 16 -12q0 -4 -6 -33l-17 -62 q-4 -20 -24 -20h-135l-244 -1149h137q16 0 17 -12q0 -4 -7 -33l-16 -62q-6 -20 -24 -20h-433q-16 0 -16 12q0 4 6 33l17 61q6 20 24 21h135l113 532h-477l-113 -532h137q16 0 17 -12q0 -4 -6 -33l-17 -62q-4 -20 -24 -20h-433q-16 0 -16 12z" />
<glyph unicode="I" horiz-adv-x="720" d="M-39 12q0 4 6 33l17 61q4 20 24 21h187l243 1149h-192q-16 0 -17 12q0 4 7 33l16 61q6 20 24 21h541q16 0 17 -12q0 -4 -7 -33l-16 -62q-4 -20 -25 -20h-188l-244 -1149h193q16 0 16 -12q0 -4 -6 -33l-16 -62q-4 -20 -25 -20h-539q-16 0 -16 12z" />
<glyph unicode="J" horiz-adv-x="872" d="M-33 246q0 104 17 137q10 20 28 20h107q14 0 14 -12q0 -4 -5 -35.5t-5 -64.5q0 -182 153 -182q61 0 107.5 26.5t71 75.5t34 80t19.5 76l192 909h-362q-16 0 -16 12q0 4 6 33l16 61q4 20 25 21h495q20 0 21 -17q0 -4 -4 -24l-197 -928l-20 -86q-8 -33 -25.5 -87t-37 -89 t-53.5 -77t-73 -66.5t-94 -41t-123 -16.5q-129 0 -210 76t-81 199z" />
<glyph unicode="K" horiz-adv-x="1099" d="M-59 12q0 4 6 33l16 61q4 20 25 21h135l244 1149h-138q-16 0 -16 12q0 4 6 33l17 61q6 20 24 21h432q16 0 17 -12q0 -4 -7 -33l-16 -62q-6 -20 -24 -20h-136l-114 -528l4 -5l510 533h-101q-16 0 -16 14q0 2 1 7.5t1 7.5l16 77q4 20 25 21h373q16 0 16 -12q0 -4 -6 -33 l-16 -62q-6 -20 -25 -20h-84l-526 -545l315 -604h100q16 0 17 -14q0 -2 -1 -7.5t-1 -7.5l-17 -78q-6 -20 -24 -20h-408q-16 0 -16 12q0 4 6 33l16 61q6 20 25 21h119l-305 596h-4l-123 -596h137q16 0 16 -12q0 -4 -6 -33l-16 -62q-4 -20 -25 -20h-432q-16 0 -16 12z" />
<glyph unicode="L" horiz-adv-x="985" d="M-39 12q0 4 6 33l17 61q4 20 24 21h135l244 1149h-137q-16 0 -17 12q0 4 7 33l16 61q6 20 25 21h432q16 0 16 -12q0 -4 -6 -33l-16 -62q-6 -20 -25 -20h-135l-242 -1139h393l105 174q16 20 18 21q6 0 27 -10l67 -39q12 -8 13 -19q0 -4 -6.5 -14t-8.5 -14l-125 -211 q-16 -25 -36 -25h-775q-16 0 -16 12z" />
<glyph unicode="M" horiz-adv-x="1402" d="M-70 12q0 4 7 33l16 61q6 20 24 21h132l309 1149h-137q-16 0 -17 12q0 4 6 33l17 61q4 20 24 21h275q27 0 28 -25l82 -708q0 -4 3 -44t3 -65h5q10 43 47 109l385 714q8 18 30 19h297q16 0 17 -12q0 -4 -6 -33l-17 -62q-6 -20 -24 -20h-131l-181 -1149h140q16 0 16 -12 q0 -4 -6 -33l-17 -62q-4 -20 -24 -20h-426q-16 0 -16 12q0 4 6 33l16 61q6 20 25 21h131l176 954q6 47 22 105l-4 4q-12 -39 -47 -109l-389 -719q-20 -35 -39 -34h-59q-16 0 -21.5 4t-7.5 22l-76 727q-10 92 -10 117h-4q-4 -55 -18 -117l-228 -954h139q16 0 17 -12 q0 -4 -6 -33l-17 -62q-4 -20 -24 -20h-426q-17 0 -17 12z" />
<glyph unicode="N" horiz-adv-x="1214" d="M-39 12q0 4 6 33l17 61q4 20 24 21h133l246 1149h-135q-16 0 -16 12q0 4 6 33l16 61q4 20 25 21h282q27 0 29 -25l223 -979q14 -76 21 -153h4q8 104 22 166l187 864h-138q-16 0 -16 12q0 4 6 33l17 61q6 20 24 21h412q16 0 16 -12q0 -4 -6 -33l-16 -62q-6 -20 -25 -20 h-131l-258 -1200q-2 -4 -4 -13.5t-3 -13.5t-2 -11t-3 -11t-4.5 -9.5t-4.5 -7.5l-5 -5q-3 -3 -7 -4t-8 -1h-94q-35 0 -41 25l-236 1040q-12 53 -16 145h-4q-2 -51 -21 -153l-198 -930h133q16 0 16 -12q0 -4 -6 -33l-16 -62q-6 -20 -25 -20h-410q-16 0 -16 12z" />
<glyph unicode="O" horiz-adv-x="1099" d="M107 399q0 178 34.5 353.5t103 331t189.5 252t277 96.5q193 0 275.5 -105.5t82.5 -302.5q0 -195 -36 -376t-105.5 -335.5t-189.5 -248t-271 -93.5q-201 0 -280.5 110.5t-79.5 317.5zM274 381q0 -139 44.5 -205.5t158.5 -66.5q172 0 264 213q84 172 122 366.5t38 331.5 q0 141 -44 207.5t-158.5 66.5t-203.5 -109.5t-133.5 -268t-66 -298t-21.5 -237.5z" />
<glyph unicode="P" d="M-39 12q0 4 6 33l17 61q4 20 24 21h135l244 1149h-139q-16 0 -17 12q0 4 7 33l16 61q4 20 25 21h405q68 0 104.5 -2t99 -17.5t96.5 -43t60.5 -86t26.5 -142.5q0 -262 -186 -422q-111 -94 -332 -94h-150l-100 -469h158q16 0 16 -12q0 -4 -6 -33l-16 -62q-4 -20 -25 -20 h-453q-16 0 -16 12zM434 733h127q168 0 236 68q106 117 106 268q0 117 -43 157t-117 40h-196z" />
<glyph unicode="Q" horiz-adv-x="1099" d="M106 399q0 141 21.5 280.5t70 277t119 242t178 169t236.5 64.5q190 0 265 -111t75 -313q0 -229 -86 -518t-197 -373q70 -78 115 -113l24 -18q13 -10 21 -15.5t17.5 -13.5l14.5 -12t10 -10.5t7 -10.5t2 -8q0 -10 -12 -18l-94 -52q-18 -6 -21 -6q-66 0 -202 185 q-106 -53 -226 -54q-190 0 -264 110.5t-74 317.5zM274 381q0 -141 39 -206.5t144 -65.5q98 0 180 74.5t129 182t80 238.5t45 234.5t12 179.5q0 143 -39 209.5t-145 66.5q-121 0 -214 -109.5t-139.5 -268t-69 -298t-22.5 -237.5z" />
<glyph unicode="R" horiz-adv-x="1062" d="M-59 12q0 4 6 33l16 62q4 20 25 20h135l244 1149h-140q-16 0 -16 12q0 4 6 33l16 61q4 20 25 21h406q68 0 104.5 -2t99 -17.5t96 -43t60.5 -86t27 -142.5q0 -168 -96.5 -299t-260.5 -162l180 -524h127q16 0 17 -14q0 -2 -1 -7.5t-1 -7.5l-12 -78q-4 -20 -29 -20h-199 q-33 0 -39 20l-202 617h-144l-108 -510h157q16 0 17 -12q0 -4 -6 -33l-17 -62q-4 -20 -24 -20h-453q-16 0 -16 12zM422 774h125q168 0 235 68q100 100 101 227q0 117 -43 157t-117 40h-197z" />
<glyph unicode="S" horiz-adv-x="909" d="M-10 86q0 8 4 25l55 256q4 23 25 22h94q18 0 18 -12q0 -6 -3 -16.5t-3 -12.5l-39 -186q2 0 17.5 -8.5t32.5 -14.5l41 -14q24 -8 52.5 -12t59.5 -4q137 0 210 79.5t73 202.5q0 82 -44 147.5t-108 113.5l-127 99q-63 50 -107 123.5t-44 165.5q0 178 123.5 285t314.5 107 q117 0 218 -37t101 -70q0 -4 -2 -12t-2 -13l-51 -235q-4 -23 -25 -23h-94q-18 0 -18 13q0 8 4 28l35 158q-2 0 -16.5 8t-29 14.5t-36 14.5t-48 12t-53.5 4q-115 0 -184 -68.5t-69 -181.5q0 -63 37.5 -112t129 -118t125.5 -101q66 -66 102 -134.5t36 -170.5q0 -195 -128 -316 t-339 -121q-121 0 -229.5 41t-108.5 74z" />
<glyph unicode="T" horiz-adv-x="909" d="M106 12q0 4 7 33l16 61q6 20 25 21h135l243 1139h-200l-45 -217q-6 -20 -27 -21h-94q-16 0 -16 12q0 4 6 33l63 307q4 23 31 23h788q16 0 17 -12q0 -4 -6 -33l-66 -309q-6 -20 -27 -21h-94q-16 0 -16 14q0 8 4 21l43 203h-201l-243 -1139h153q16 0 16 -12q0 -4 -6 -33 l-16 -62q-6 -20 -25 -20h-448q-17 0 -17 12z" />
<glyph unicode="U" horiz-adv-x="1214" d="M147 258q0 70 15 127l188 891h-129q-16 0 -16 12q0 4 6 33l16 61q6 20 25 21h424q16 0 16 -12q0 -4 -6 -33l-16 -62q-6 -20 -25 -20h-135l-186 -891q-16 -74 -17 -115q0 -162 213 -161q272 0 330 276l186 891h-129q-16 0 -16 12q0 4 6 33l16 61q4 20 25 21h424 q16 0 16 -12q0 -4 -6 -33l-16 -62q-4 -20 -25 -20h-135l-190 -891q-41 -193 -155 -303.5t-353 -110.5q-174 0 -262.5 68.5t-88.5 218.5z" />
<glyph unicode="V" horiz-adv-x="1062" d="M147 1288q0 4 7 33l16 61q6 20 25 21h387q16 0 16 -12q0 -4 -6 -33l-17 -62q-6 -20 -24 -20h-127l29 -965q0 -109 -2 -151l4 -4q29 92 59 155l444 965h-129q-16 0 -16 12q0 4 6 33l17 61q4 20 24 21h373q16 0 16 -12q0 -4 -6 -33l-16 -62q-6 -20 -25 -20h-80l-606 -1256 q-12 -20 -39 -20h-121q-31 0 -30 27l-70 1249h-92q-17 0 -17 12z" />
<glyph unicode="W" horiz-adv-x="1517" d="M170 1288q0 4 6 33l17 61q4 20 24 21h387q16 0 17 -12q0 -4 -7 -33l-16 -62q-4 -20 -25 -20h-127l-43 -911q-4 -92 -22 -222l4 -4q35 141 70 226l419 1017q6 20 31 21h92q29 0 29 -23l-45 -1026q-6 -117 -18 -196l4 -4q27 121 59 200l363 922h-129q-16 0 -17 12q0 4 6 33 l17 61q4 20 24 21h373q16 0 16 -12q0 -4 -6 -33l-16 -62q-6 -20 -25 -20h-92l-528 -1256q-10 -20 -35 -20h-117q-16 0 -23.5 5t-5.5 18l58 1085l-4 4l-432 -1073q-10 -25 -17.5 -32t-21.5 -7h-123q-18 0 -23.5 6t-3.5 23l29 1247h-107q-16 0 -16 12z" />
<glyph unicode="X" d="M-137 12q0 4 6 33l16 61q4 20 25 21h98l455 606l-180 543h-119q-16 0 -17 12q0 4 7 33l16 61q6 20 25 21h401q16 0 16 -12q0 -4 -6 -33l-16 -62q-4 -20 -25 -20h-112l98 -299q25 -74 33 -107q29 61 69 115l221 291h-122q-16 0 -17 12q0 4 6 33l17 61q4 20 24 21h394 q16 0 16 -12q0 -4 -6 -33l-17 -62q-6 -20 -24 -20h-88l-420 -543l209 -606h117q16 0 16 -12q0 -4 -6 -33l-17 -62q-6 -20 -24 -20h-412q-16 0 -16 12q0 4 6 33l16 61q6 20 25 21h119l-113 346q-25 74 -33 107l-69 -97l-267 -356h138q16 0 16 -12q0 -4 -6 -33l-17 -62 q-4 -20 -24 -20h-416q-16 0 -16 12z" />
<glyph unicode="Y" horiz-adv-x="985" d="M131 1288q0 4 6 33l17 61q6 20 24 21h363q16 0 16 -12q0 -4 -6 -33l-16 -62q-6 -20 -25 -20h-113l113 -432q14 -53 18 -127h4q31 59 70 121l279 438h-123q-16 0 -17 12q0 4 7 33l16 61q6 20 24 21h383q16 0 17 -12q0 -4 -6 -33l-17 -62q-6 -20 -24 -20h-78l-475 -682 l-99 -467h144q16 0 16 -14q0 -2 -1 -7.5t-1 -7.5l-16 -78q-4 -20 -25 -20h-450q-16 0 -17 14q0 2 1 7.5t1 7.5l17 77q6 20 24 21h148l96 467l-186 682h-93q-16 0 -16 12z" />
<glyph unicode="Z" horiz-adv-x="948" d="M-31 16q0 2 2 9.5t2 11.5l23 108l846 1121h-439l-34 -172q-4 -20 -25 -21h-94q-18 0 -19 14q0 6 5 23l57 272q4 20 33 21h710q20 0 21 -17q0 -6 -3 -18t-3 -14l-17 -76l-862 -1141h516l113 185q4 12 16 12q6 0 17 -6l67 -49q14 -10 14 -19q0 -6 -4 -14l-141 -221 q-16 -25 -39 -25h-741q-21 0 -21 16z" />
<glyph unicode="[" horiz-adv-x="872" d="M127 -397q0 6 12 67l377 1770q4 29 31 28h358q16 0 17 -14q0 -2 -1 -7t-1 -7l-17 -78q-6 -20 -24 -21h-230l-346 -1628h246q16 0 16 -14q0 -2 -1 -7t-1 -7l-16 -78q-6 -20 -25 -21h-348q-47 1 -47 17z" />
<glyph unicode="\" horiz-adv-x="985" d="M365 1446q0 23 28 22h80q23 0 27 -22l217 -1811q0 -6 1 -14t1 -12q0 -23 -29 -23h-80q-25 0 -26 23l-217 1810q-2 11 -2 27z" />
<glyph unicode="]" horiz-adv-x="872" d="M-51 -399q0 2 1 7t1 7l16 78q4 20 25 20h229l346 1628h-245q-16 0 -17 15q0 2 1 7t1 7l17 78q4 20 24 20h348q47 0 47 -16q0 -6 -12 -68l-377 -1769q-4 -29 -30 -29h-359q-16 1 -16 15z" />
<glyph unicode="^" d="M170 707q4 16 10 26l293 653q10 16 33 17h100q23 0 33 -17l293 -653q6 -10 10 -26q0 -10 -20 -17l-91 -26q-12 -4 -18 -5q-14 0 -20 15l-238 528l-236 -528q-8 -14 -20 -15q-6 0 -18 5l-91 26q-20 5 -20 17z" />
<glyph unicode="_" d="M0 -154h1024v-102h-1024v102z" />
<glyph unicode="`" horiz-adv-x="681" d="M270 1309q0 6 9 14l100 104q10 14 22 15q8 0 17 -8l211 -226l2 -4q4 -2 4 -6q0 -8 -8 -16l-45 -45q-10 -10 -21 -11q-8 0 -14 7l-268 163q-9 5 -9 13z" />
<glyph unicode="a" d="M72 272q0 84 17 179.5t56 196t94.5 181t137.5 132t176 51.5q61 0 109.5 -22.5t59.5 -35l46 -53.5l29 64q6 18 18 18h90q16 0 17 -12q0 -2 -4 -23l-138 -635q-14 -76 -14 -137q0 -10 1 -27.5t1 -29.5h135q18 -1 19 -13q0 -2 -1 -7t-1 -7l-17 -72q-6 -20 -24 -20h-156 q-49 0 -78 47q-14 23 -18 48.5t-2 57t2 37.5q-145 -219 -324 -219q-111 0 -171 82t-60 219zM227 281q0 -172 125 -172q82 0 152.5 68.5t111.5 154.5t60 176l59 278q-88 88 -184 88q-104 0 -182 -114.5t-110 -245.5t-32 -233z" />
<glyph unicode="b" horiz-adv-x="985" d="M63 104q0 8 5 17l262 1229h-144q-16 0 -16 12q0 4 6 33l10 49q6 25 27 24h270q14 -2 15 -14q0 -8 -11 -49l-96 -453q-4 -16 -29 -96l5 -4q115 160 303 160q238 0 237 -277q0 -246 -145 -530q-59 -113 -141 -173.5t-209 -60.5q-166 0 -334 111q-15 8 -15 22zM223 158 q121 -53 201 -54q82 0 149.5 77t103.5 186.5t55.5 207t19.5 156.5q0 72 -38 107.5t-102 35.5q-111 0 -194.5 -95t-106.5 -206z" />
<glyph unicode="c" horiz-adv-x="796" d="M66 313q0 176 58 332t182 261.5t288 105.5q63 0 148 -24.5t85 -67.5q0 -4 -4 -25l-41 -195q-2 -23 -26 -22h-90q-18 0 -19 14q0 6 4 23l31 139q-51 20 -104 20q-117 0 -201 -93t-120 -216t-36 -250q0 -201 185 -200q59 0 111 20.5t83 42t39 21.5q14 0 16 -9l33 -71 q4 -12 4 -17q0 -16 -46 -45.5t-129 -57.5t-163 -28q-288 0 -288 342z" />
<glyph unicode="d" d="M68 274q0 184 49 347t162.5 277t271.5 114q111 0 225 -68l84 406h-145q-16 0 -17 12q0 2 1 6l3 12q2 8 3 15l10 49q6 25 26 24h254q20 0 26.5 -3t6.5 -13q0 -6 -2 -13t-4 -18.5t-4 -19.5l-230 -1088q-14 -76 -14 -137q0 -10 1 -27.5t1 -29.5h135q18 -1 19 -13q0 -2 -1 -7 t-1 -7l-17 -72q-6 -20 -24 -20h-156q-59 0 -86 68q-10 25 -10 112h-4q-150 -209 -332 -209q-231 0 -231 303zM223 283q0 -174 113 -174q129 0 218 106.5t124 269.5l70 328q-102 61 -191 61q-90 0 -158.5 -60t-104.5 -155.5t-53.5 -190.5t-17.5 -185z" />
<glyph unicode="e" horiz-adv-x="909" d="M68 346q0 268 147 467t371 199q133 0 201.5 -72t68.5 -190q0 -74 -27.5 -132.5t-64.5 -95.5t-101.5 -62.5t-112.5 -38.5t-125 -20.5t-108.5 -8.5t-93.5 -1q0 -10 -1 -26.5t-1 -24.5q0 -225 193 -225q80 0 146.5 24.5t102 49t44.5 24.5q10 0 18 -12l49 -74q4 -8 4 -10 q0 -14 -51 -48t-144.5 -66t-183.5 -32q-168 0 -249.5 99.5t-81.5 275.5zM242 518q469 0 469 225q0 66 -38 104t-110 38q-239 0 -321 -367z" />
<glyph unicode="f" horiz-adv-x="645" d="M-270 -379q0 10 2 14l28 84q4 12 15 13q2 0 21.5 -5.5t49 -9.5t56.5 -4q59 0 101 24.5t64.5 68.5t32 73t17.5 72l176 913h-143q-16 0 -17 13q0 4 6 32l11 49q6 25 26 25h143l41 197q10 49 17.5 77.5t31 76.5t55.5 76t90 50.5t136 22.5q74 0 146.5 -22.5t72.5 -41.5v-2 l-2 -4l-37 -88q-6 -10 -14 -10l-65 24q-63 25 -117 25q-20 0 -39 -4t-32 -9t-26 -18l-21 -18q-7 -6 -15.5 -23.5t-12.5 -24.5t-9 -28.5t-6 -27.5l-5 -26q-4 -22 -4 -24l-37 -178h289q16 0 16 -12q0 -4 -10 -33l-19 -49q-10 -25 -26 -25h-277l-174 -921q-10 -51 -19 -86 t-37 -91.5t-64.5 -92t-104.5 -63.5t-156 -28q-55 0 -105 11.5t-50 27.5z" />
<glyph unicode="g" horiz-adv-x="985" d="M-35 -332q0 4 4 14.5t4 12.5l35 88q4 12 17 12q4 0 106 -44t191 -44q61 0 107 25.5t71.5 62.5t45 94.5t27.5 106.5l20 114q11 65 19 99l-4 4q-135 -213 -299 -213q-111 0 -171 82t-60 219q0 104 26.5 221t79 229.5t148.5 186.5t221 74q113 0 240 -97q16 33 41.5 62 t46.5 29q8 0 18 -7l57 -53q8 -8 8.5 -14t-6.5 -13l-15 -19q-9 -11 -15 -19q-16 -23 -28.5 -45.5l-20 -37t-13.5 -37t-8 -28.5t-6 -30.5t-4 -26.5l-62 -295q-14 -82 -50 -268.5t-48 -259.5q-27 -141 -135.5 -212t-249.5 -71q-70 0 -152.5 20.5t-134 44t-51.5 33.5zM233 309 q0 -172 105 -172q121 0 209 116t119 255l61 291q-86 76 -195 75q-39 0 -65.5 -8t-37.5 -15t-30 -26q-61 -57 -113.5 -228t-52.5 -288z" />
<glyph unicode="h" horiz-adv-x="1062" d="M59 12q0 4 7 33l278 1305h-143q-16 0 -17 12q0 4 6 33l11 49q6 25 26 24h271q14 -2 14 -14q0 -8 -10 -49l-96 -453q-14 -76 -48 -153l4 -4q154 217 371 217q84 0 135.5 -43t51.5 -121q0 -25 -21 -143l-121 -586h135q18 0 19 -12q0 -2 -1 -7.5t-1 -7.5l-17 -72 q-6 -20 -24 -20h-156q-43 0 -72.5 24.5t-29.5 67.5q0 18 4 47l117 566q12 53 12 81q0 88 -92 88q-78 0 -146.5 -44t-112.5 -110.5t-72 -131t-40 -121.5l-94 -447q-6 -20 -25 -20h-106q-17 0 -17 12z" />
<glyph unicode="i" horiz-adv-x="569" d="M92 877q0 4 6 32l11 49q6 25 26 25h273q23 0 27.5 -3t4.5 -13q0 -6 -2 -13.5t-4 -18.5t-4 -20l-168 -796h135q18 0 19 -13q0 -2 -1 -7t-1 -7l-17 -72q-6 -20 -24 -20h-156q-43 0 -72.5 24.5t-29.5 67.5q0 33 4 47l153 725h-163q-17 1 -17 13zM328 1354q0 47 33.5 80.5 t80.5 33.5q45 0 80 -33.5t35 -80.5t-34 -81t-81 -34t-80.5 34t-33.5 81z" />
<glyph unicode="j" horiz-adv-x="569" d="M-309 -354q0 8 6 20l37 80q6 14 20 14q2 0 61.5 -26.5t118.5 -26.5q23 0 42.5 7t35 16.5t28.5 27.5l23 33q10 14 20 39l14 39q5 14 12.5 42t9.5 38l7 35q5 25 5 28l182 852h-163q-16 0 -17 13q0 4 6 32l11 49q6 25 26 25h273q23 0 27.5 -3t4.5 -13q0 -6 -2 -13.5 t-4 -18.5t-4 -20l-201 -940q-35 -164 -69 -229q-92 -176 -293 -176q-63 0 -140 30t-77 46zM369 1354q0 47 33.5 80.5t80.5 33.5q45 0 80 -33.5t35 -80.5t-34 -81t-81 -34t-80.5 34t-33.5 81z" />
<glyph unicode="k" horiz-adv-x="948" d="M63 12q0 4 7 33l278 1305h-143q-16 0 -17 12q0 4 7 33l10 49q6 25 26 24h271q14 -2 14 -14q0 -6 -5 -23.5t-5 -25.5l-184 -856l4 -4l354 319h-111q-16 0 -16 13q0 4 6 32l10 49q6 25 27 25h365q16 0 16 -12q0 -4 -6 -33l-10 -49q-6 -25 -27 -25h-64l-399 -342l283 -403 h112q16 0 17 -13q0 -4 -6 -32l-11 -49q-6 -25 -26 -25h-162q-23 0 -31 14l-334 496l-102 -490q-6 -20 -25 -20h-106q-17 0 -17 12z" />
<glyph unicode="l" horiz-adv-x="530" d="M98 127q0 61 37 246l209 977h-160q-16 0 -16 12q0 4 6 33l10 49q6 25 27 24h287q14 -2 14 -14q0 -6 -5 -23.5t-5 -25.5l-219 -1032q-33 -141 -33 -207q0 -68 63 -68q31 0 66 17.5t39 17.5q12 0 14 -14l10 -58q0 -4 2 -12t2 -10q0 -23 -60 -45.5t-122 -22.5q-76 0 -121 40 t-45 116z" />
<glyph unicode="m" horiz-adv-x="1554" d="M100 12q0 4 6 33l142 670q14 76 14 100q0 8 -1 24.5t-1 24.5h-141q-16 0 -17 13q0 4 7 32l10 49q6 25 26 25h211q45 0 45 -135q0 -35 -2 -49l4 -4q137 217 328 217q76 0 124 -48.5t48 -138.5h4q129 186 324 187q84 0 135 -43t51 -121q0 -25 -20 -143l-123 -586h135 q18 0 18 -12q0 -2 -1 -7.5t-1 -7.5l-16 -72q-6 -20 -25 -20h-155q-43 0 -73 24.5t-30 67.5q0 18 4 47l119 566q12 53 13 81q0 88 -93 89q-242 0 -333 -443l-88 -412q-6 -20 -25 -20h-107q-16 0 -16 12q0 4 6 33l144 660q12 53 12 81q0 88 -92 88q-90 0 -165 -76.5 t-112 -163.5t-51 -167l-94 -447q-6 -20 -25 -20h-106q-17 0 -17 12z" />
<glyph unicode="n" horiz-adv-x="1099" d="M100 12q0 4 6 33l142 670q14 76 14 100q0 8 -1 24.5t-1 24.5h-141q-16 0 -17 13q0 4 7 32l10 49q6 25 26 25h211q45 0 45 -135q0 -35 -2 -49l4 -4q154 217 371 217q84 0 135.5 -43t51.5 -121q0 -49 -21 -143l-123 -586h135q18 0 19 -12q0 -2 -1 -7.5t-1 -7.5l-17 -72 q-6 -20 -24 -20h-156q-45 0 -73.5 24.5t-28.5 67.5q0 18 4 47l119 566q12 53 12 81q0 88 -92 88q-78 0 -146.5 -44t-112.5 -110.5t-72 -131t-40 -121.5l-94 -447q-6 -20 -25 -20h-106q-17 0 -17 12z" />
<glyph unicode="o" horiz-adv-x="985" d="M68 313q0 176 55 331t178 261.5t291 106.5q150 0 231.5 -87t81.5 -259q0 -170 -57 -325t-181 -262.5t-290 -107.5q-309 0 -309 342zM223 317q0 -209 178 -208q115 0 198 95t117 216t34 244q0 106 -49.5 158t-131.5 52q-117 0 -198.5 -92t-114.5 -214t-33 -251z" />
<glyph unicode="p" d="M-119 -401q0 4 6 32l11 50q6 25 26 24h113l199 965q16 57 16 114q0 45 -4 80h-146q-16 0 -16 13q0 4 6 32l10 49q6 25 27 25h164q72 0 82 -12q8 -8 13 -29.5t9 -49.5t6 -38q154 158 322 158q231 0 231 -303q0 -184 -49 -347t-162.5 -277t-271.5 -114q-111 0 -225 68 l-62 -334h136q18 0 18 -12q0 -8 -4 -25l-14 -61q-2 -20 -25 -21h-399q-17 1 -17 13zM276 170q102 -61 191 -61q90 0 158.5 60t104.5 155.5t53.5 190.5t17.5 185q0 174 -113 174q-129 0 -219 -106t-123 -270z" />
<glyph unicode="q" horiz-adv-x="985" d="M72 276q0 127 29.5 254t86 237t152.5 177.5t217 67.5q23 0 43.5 -2t38.5 -8l34 -9q15 -4 30 -12l25 -13q9 -5 22.5 -14.5t18.5 -13.5t16.5 -14.5t13.5 -12.5q68 98 84 99q6 0 12 -6l66 -43q8 -8 8 -13q0 -8 -8 -19l-25 -35q-16 -24 -31 -54q-31 -66 -47 -152l-211 -985 h125q18 0 19 -12q0 -8 -5 -25l-14 -61q-2 -20 -24 -21h-400q-16 0 -16 13q0 4 6 32l10 50q6 25 27 24h123l96 440l-4 5q-31 -39 -52.5 -60.5t-60.5 -53.5t-86 -48.5t-100 -16.5q-104 0 -161.5 81t-57.5 224zM227 299q0 -190 117 -190q129 0 209 108.5t111 249.5l71 342 q-92 66 -192 65q-104 0 -179 -99t-106 -225t-31 -251z" />
<glyph unicode="r" horiz-adv-x="720" d="M102 877q0 4 7 32l10 49q6 25 26 25h211q45 0 45 -125q0 -35 -2 -49l4 -4q39 84 117 145.5t160 61.5q27 0 50.5 -8.5t23.5 -18.5q0 -4 -2 -12q-4 -4 -4 -8l-41 -95q-8 -14 -15 -14q-4 0 -20.5 6t-40.5 6q-49 0 -100.5 -46t-86.5 -95q-61 -86 -98 -260l-94 -447 q-6 -20 -25 -20h-106q-16 0 -17 12q0 4 7 33l141 670q10 55 10 100q0 8 -1 24.5t-1 24.5h-141q-17 1 -17 13z" />
<glyph unicode="s" horiz-adv-x="796" d="M2 68q0 10 8 43l39 188q6 20 27 20h90q18 0 18 -12q0 -6 -4 -22l-28 -142q63 -35 170 -34q74 0 126 46t52 119q0 55 -33 96.5t-80 71.5l-94 63q-47 32 -80 84t-33 122q0 139 98.5 220t241.5 81q88 0 161 -28t73 -54q0 -2 -6 -33l-37 -176q-6 -20 -27 -21h-90 q-18 0 -19 13q0 6 5 22l26 125q-57 14 -98 14q-78 0 -125 -39.5t-47 -105.5q0 -49 35 -87t100.5 -79t93.5 -67q90 -80 90 -193q0 -152 -100 -242t-260 -90q-68 0 -138.5 19.5t-112.5 42.5t-42 35z" />
<glyph unicode="t" horiz-adv-x="681" d="M96 877q0 4 6 32l11 49q6 25 26 25h150l59 283q6 18 21 22l108 31q2 0 7 1t8 1q12 0 12 -12q0 -6 -4 -23l-66 -303h279q16 0 16 -12q0 -2 -8 -23l-33 -67q-6 -16 -26 -17h-252l-121 -567q-10 -51 -10 -102q0 -55 21.5 -76t74.5 -21q57 0 120.5 30t69.5 30q12 0 15 -15 l10 -57q0 -4 2 -12t2 -11q0 -31 -95.5 -61.5t-193.5 -30.5q-84 0 -133 53.5t-49 151.5q0 23 18 121l121 567h-149q-17 1 -17 13z" />
<glyph unicode="u" horiz-adv-x="1099" d="M100 877q0 4 6 32l11 49q6 25 26 25h277q14 -2 14 -14q0 -6 -5 -23.5t-5 -25.5l-117 -572q-23 -82 -22 -125q0 -115 104 -114q68 0 137.5 40.5t102.5 81.5l20 30l18 27q7 11 14 29.5t12 27.5t11.5 30.5t8.5 27t8 30t6 26.5t6 28l6 29l95 432q4 16 24 21l98 22q2 0 11.5 3 t13.5 3q8 0 8 -8q0 -2 -4 -22l-151 -699q-14 -76 -15 -100q0 -8 1 -24.5t1 -24.5h142q16 0 16 -13q0 -4 -6 -32l-10 -49q-6 -25 -27 -25h-117q-70 0 -93.5 19.5t-31.5 60.5q-4 20 -4 84h-4q-152 -193 -358 -193q-80 0 -139.5 56.5t-59.5 158.5q0 16 3 36t8 44.5t7 38.5 l119 559h-149q-17 1 -17 13z" />
<glyph unicode="v" horiz-adv-x="909" d="M43 877q0 4 6 32l10 49q6 25 27 25h213q20 0 25 -31l59 -608q8 -123 8 -135h4q23 47 84 162l322 614q4 12 14 12q4 0 8 -2t8 -2l101 -24q12 -2 12 -12.5t-6 -18.5l-541 -936q-10 -16 -26 -16h-64q-23 0 -24 22l-109 856h-115q-16 1 -16 13z" />
<glyph unicode="w" horiz-adv-x="1290" d="M59 877q0 4 7 32l10 49q6 25 26 25h213q25 0 25 -31l-10 -739l4 -4q4 14 13 35l22 46l18 38l309 626q12 29 33 29h86q6 0 10 -22l13 -779h4q0 2 30 81l48 118l256 604q4 12 14 12q2 0 8 -2t8 -2l101 -24q12 -2 12 -12.5t-6 -18.5l-451 -922q-16 -31 -41 -30h-63 q-25 0 -25 22l-22 733h-4l-28 -60l-22 -51q-8 -19 -14 -30l-307 -598q-10 -16 -27 -16h-63q-25 0 -25 22l-31 856h-114q-17 1 -17 13z" />
<glyph unicode="x" horiz-adv-x="872" d="M-57 45q0 6 10 16l407 449l-161 354h-115q-16 0 -16 13q0 4 6 32l10 49q6 25 27 25h182q12 0 20 -14l121 -283q2 -6 12.5 -29.5t14.5 -33.5q23 39 45 63l250 303q6 10 14 10q2 0 14 -4l107 -43q8 -4 8 -12q0 -2 -2 -5t-4 -5t-2 -4l-381 -416l178 -391h113q16 0 16 -13 q0 -4 -6 -32l-10 -49q-6 -25 -27 -25h-182q-18 0 -27 18l-135 310q-10 23 -20 55q-4 -6 -18.5 -23.5t-18.5 -23.5l-277 -334q-14 -16 -22 -16l-27 10l-92 37q-12 6 -12 12z" />
<glyph unicode="y" horiz-adv-x="948" d="M-131 -344q0 4 10 20l47 78q6 10 17 10q4 0 57 -28.5t104 -28.5q123 0 213 164l70 129h-74q-23 0 -24 20l-123 844h-117q-18 0 -18 15q0 2 1 6t1 6l14 70q6 23 27 22h217q18 0 20 -18l115 -885h4l393 905q4 12 13 12q4 0 16 -4l96 -39q10 -4 10 -12q0 -4 -2 -9t-2 -7 l-360 -805q-4 -10 -29 -67l-38 -86q-13 -30 -43.5 -88t-56.5 -94t-65.5 -82t-77.5 -71.5t-89.5 -44t-104.5 -18.5q-76 0 -148.5 31.5t-72.5 54.5z" />
<glyph unicode="z" horiz-adv-x="833" d="M-29 12q0 2 4 23l17 71l659 750h-327l-29 -131q-2 -23 -25 -23h-86q-18 0 -18 15q0 10 4 22l47 224q2 20 25 20h596q16 0 16 -12q0 -2 -4 -23l-16 -71l-646 -750h365l80 127q12 20 22 20q12 0 23 -8l57 -37q12 -8 13 -16q0 -6 -13 -27l-102 -163q-14 -23 -41 -23h-604 q-17 0 -17 12z" />
<glyph unicode="{" horiz-adv-x="948" d="M164 498q0 4 4 20l14 64q2 12 4 16t7.5 6t17.5 2h45q104 0 150.5 48t66.5 137l78 364q33 156 121 234.5t289 78.5h36q20 0 21 -16q0 -4 -2 -12t-2 -10l-13 -64q-4 -25 -30 -25h-58q-102 0 -147 -49t-64 -137l-77 -364q-20 -100 -67.5 -158t-133.5 -92q35 -23 49 -33 t35.5 -46t21.5 -83q0 -2 -12 -82l-86 -408q-8 -31 -8 -71q0 -45 24.5 -69.5t51 -30t67.5 -5.5h58q20 0 20 -18q0 -6 -4 -27l-12 -57q-8 -25 -31 -25h-39q-291 0 -291 209q0 49 13 94l86 408q8 27 8 65q0 117 -146 117h-45q-20 1 -20 19z" />
<glyph unicode="|" horiz-adv-x="802" d="M369 -483v1990q0 29 26 29h94q27 0 27 -29v-1990q0 -18 -4 -23.5t-23 -5.5h-94q-18 0 -22 5.5t-4 23.5z" />
<glyph unicode="}" horiz-adv-x="948" d="M-72 -397q0 4 2 12t2 10l13 64q4 25 30 24h58q102 0 147 49.5t64 137.5l78 364q20 100 67 157.5t133 92.5q-35 23 -49 33t-35.5 46t-21.5 83q0 29 12 82l86 407q8 31 8 72q0 45 -24.5 69.5t-51 29.5t-67.5 5h-57q-20 0 -21 19q0 6 4 26l12 58q8 25 31 24h39 q291 0 291 -208q0 -33 -12 -95l-86 -407q-8 -27 -9 -66q0 -117 146 -117h45q20 0 20 -18q0 -4 -4 -20l-14 -64q-2 -12 -4 -16t-7 -6t-18 -2h-45q-104 0 -150 -48.5t-67 -136.5l-78 -364q-33 -156 -121 -235t-288 -79h-37q-21 1 -21 17z" />
<glyph unicode="~" d="M-8 375q0 45 12 96t40 108.5t83 94.5t129 37q90 0 242 -88l116 -70q41 -23 98.5 -43.5t84.5 -20.5q133 0 153 183h94q0 -125 -67.5 -229.5t-196.5 -104.5q-104 0 -241 86l-117 70q-115 66 -182 65q-139 0 -154 -184h-94z" />
<glyph unicode="&#xa1;" horiz-adv-x="681" d="M41 -434q0 4 4 24l215 799q4 16 8 19.5t23 3.5h61q23 0 23 -15q0 -10 -2 -16l-127 -805q-4 -25 -29 -25h-156q-20 1 -20 15zM272 845.5q0 57.5 41 97.5t97 40q57 0 97 -40t40 -97.5t-40 -97t-97 -39.5q-55 0 -96.5 39.5t-41.5 97z" />
<glyph unicode="&#xa2;" d="M205 520q0 276 141 483t338 207l27 133q6 25 30 25h50q20 0 20 -14q0 -4 -1 -9.5t-1 -7.5l-27 -127q57 0 126 -28.5t69 -51.5q0 -4 -4 -12l-51 -88q-8 -8 -17 -8q-6 0 -26.5 11t-54 25.5t-70.5 20.5l-162 -762q53 14 93 36t59.5 36t27.5 14q10 0 14 -10l33 -71 q4 -8 4 -17q0 -27 -89 -71t-171 -56l-35 -153q-4 -25 -30 -25h-47q-20 0 -21 16q0 10 2 15l33 147q-119 14 -189.5 89t-70.5 253zM360 516q0 -96 35 -139t99 -62l161 760q-127 -20 -211 -187t-84 -372z" />
<glyph unicode="&#xa3;" d="M43 18q0 8 4 25l14 68q4 27 31 26h176q0 2 13 30l17 40q5 12 16.5 45t18.5 56.5t16 61.5t13.5 70.5t8.5 75.5t4 84q0 6 -1 16.5t-1 14.5h-189q-20 0 -20 16q0 10 4 23l14 73q4 25 31 25h158q0 14 -1 41t-1 39q0 221 125 359.5t362 138.5q61 0 145 -19.5t132 -50.5 q10 -8 10 -16q0 -10 -6 -21l-35 -74q-4 -12 -19 -12q-8 0 -37.5 16.5t-82 33t-117.5 16.5q-178 0 -268 -132q-61 -90 -62 -286v-33h279q20 0 20 -14q0 -2 -2 -10.5t-2 -14.5l-14 -74q-4 -25 -31 -24h-244v-35q0 -39 -2 -76t-8 -70l-11 -63q-5 -29 -14 -58l-14 -50 q-6 -20 -16 -48l-15 -37q-4 -11 -13 -33t-11 -24h545q23 0 22 -16q0 -4 -4 -11.5t-4 -9.5l-51 -82q-10 -18 -31 -18h-832q-20 0 -20 18z" />
<glyph unicode="&#xa4;" d="M57 1145l66 63l141 -139q131 94 281 94q147 0 278 -94l142 139l65 -63l-143 -144q98 -100 98 -282q0 -170 -96 -279l137 -137l-61 -61l-136 135q-129 -96 -284 -96q-164 0 -287 96l-135 -135l-62 61l138 137q-96 104 -97 279q0 162 99 282zM186 718.5 q0 -147.5 105.5 -250.5t253.5 -103q145 0 250.5 104t105.5 250q0 147 -104.5 253.5t-252 106.5t-253 -106.5t-105.5 -254z" />
<glyph unicode="&#xa5;" d="M70 571q0 8 2 17l4 26q4 23 43 23h327l-32 115h-277q-25 0 -24 10q0 8 2 16l4 27q4 23 43 22h231l-119 449h-90q-16 0 -16 14q0 2 1 7.5t1 7.5l16 77q6 20 25 21h362q16 0 17 -14q0 -2 -1 -7.5t-1 -7.5l-17 -78q-6 -20 -24 -20h-117l115 -432q16 -92 18 -127h4 q41 78 70 121l281 438h-119q-16 0 -17 14q0 2 1 7.5t1 7.5l17 77q6 20 24 21h385q16 0 17 -14q0 -2 -1 -7.5t-1 -7.5l-17 -78q-4 -20 -24 -20h-86l-314 -449h242q25 0 25 -10q0 -8 -2 -16l-5 -27q-4 -23 -43 -22h-270l-80 -115h334q25 0 25 -10q0 -8 -2 -17l-4 -26 q-4 -23 -43 -23h-347l-90 -434h144q16 0 16 -14q0 -2 -1 -7.5t-1 -7.5l-16 -78q-6 -20 -25 -20h-451q-16 0 -16 14q0 2 1 7.5t1 7.5l17 77q4 20 24 21h148l90 434h-361q-24 0 -24 10z" />
<glyph unicode="&#xa6;" horiz-adv-x="802" d="M369 -330v688h147v-688q0 -18 -4 -23t-23 -5h-94q-18 0 -22 5t-4 23zM369 666v688q0 29 26 28h94q27 0 27 -28v-688h-147z" />
<glyph unicode="&#xa7;" d="M53 -76q0 12 13 29l38 61q10 16 21 17q6 0 43 -22.5t96.5 -46t122.5 -23.5q76 0 132 49t56 114q0 55 -40.5 99.5t-100.5 77.5l-118 66q-58 34 -99 90.5t-41 129.5q0 223 313 355q-39 23 -60 38t-52 62t-31 102q0 127 102.5 218.5t260.5 91.5q72 0 136 -20.5t97 -44.5 t33 -36q0 -6 -12 -24l-43 -66q-8 -12 -21 -12q-6 0 -30.5 16.5t-71.5 32.5t-105 16q-78 0 -134 -46t-56 -105q0 -43 41 -81t99 -69.5t117.5 -67.5t100.5 -94.5t41 -130.5q0 -211 -307 -352q90 -57 121 -110q29 -51 28 -115q0 -131 -107.5 -226.5t-264.5 -95.5 q-70 0 -148 24.5t-124 54.5t-46 44zM344 594q0 -18 4 -35.5t10.5 -31t18.5 -28t19 -21.5t25 -18l23 -16q6 -4 24.5 -14t20.5 -12q51 27 75 41t73 51t72.5 81t23.5 97q0 20 -4 37.5t-14 32t-18.5 25t-24.5 21.5l-24 16q-7 5 -25.5 15.5t-22.5 12.5q-256 -109 -256 -254z" />
<glyph unicode="&#xa8;" horiz-adv-x="681" d="M260 1280q0 43 31 73.5t74 30.5t73.5 -30.5t30.5 -73.5q0 -45 -30.5 -74.5t-73.5 -29.5t-74 30.5t-31 73.5zM635 1280q0 43 30.5 73.5t73.5 30.5t74 -30.5t31 -73.5q0 -45 -31 -74.5t-74 -29.5t-73.5 30.5t-30.5 73.5z" />
<glyph unicode="&#xa9;" horiz-adv-x="1138" d="M156 970.5q0 192.5 142 327t336.5 134.5t337 -134.5t142.5 -327t-142.5 -326.5t-337 -134t-336.5 134t-142 326.5zM227 971q0 -162 120 -275.5t288 -113.5t287.5 113.5t119.5 275.5q0 164 -119.5 276.5t-287.5 112.5t-288 -112.5t-120 -276.5zM385 967q0 123 79 209 t173 86q47 0 90 -16.5t55 -16.5q8 0 13.5 4t13.5 16l8 11h31v-209l-31 -7q-2 2 -9 22.5t-10 27l-11.5 25t-14.5 26.5t-15 22.5t-18.5 21.5t-21.5 15t-25.5 11.5t-27.5 3.5q-145 0 -146 -250q0 -106 39 -168t113 -62q115 0 143 150l43 2q-4 -31 -7 -47.5t-16.5 -49t-33 -52 t-58.5 -35t-92 -15.5q-115 0 -189.5 78t-74.5 197z" />
<glyph unicode="&#xaa;" horiz-adv-x="833" d="M174 848q0 98 31 207.5t108.5 200t182.5 90.5q23 0 41 -4.5t30.5 -8.5t26.5 -14t19 -14.5t17.5 -17.5l14.5 -15l19 43q4 12 12 12h92q12 0 12 -8q0 -4 -4 -25l-92 -426q-6 -33 -6 -110h82q23 0 22 -10q0 -12 -2 -19l-12 -57q-4 -14 -18 -15h-101q-102 0 -102 91 q0 27 2 36l-4 4q-18 -47 -81 -97t-142 -50q-72 0 -110 57.5t-38 149.5zM311 858q0 -102 62 -102q80 0 157 108q29 41 52 140l41 188q-59 43 -127 43q-49 0 -87 -44t-57.5 -107.5t-30 -123t-10.5 -102.5z" />
<glyph unicode="&#xab;" horiz-adv-x="1062" d="M104 487q0 4 15 19l434 434q16 16 22 16l19 -6l61 -39q10 -10 11 -16q0 -8 -9 -16l-362 -400l174 -385q6 -12 6 -16q0 -14 -18 -21l-58 -26q-16 -8 -20 -8q-10 0 -14 12l-252 434q-9 8 -9 18zM483 487q0 4 15 19l434 434q16 16 22 16l19 -6l61 -39q10 -10 10 -16 q0 -8 -8 -16l-362 -400l174 -385q6 -12 6 -16q0 -14 -18 -21l-58 -26q-16 -8 -20 -8q-10 0 -15 12l-251 434q-9 8 -9 18z" />
<glyph unicode="&#xac;" d="M45 614v91q0 18 4 23t23 5h876q18 0 23.5 -5t5.5 -23v-371q0 -29 -27 -29h-94q-27 0 -27 29v252h-757q-18 0 -22.5 5t-4.5 23z" />
<glyph unicode="&#xad;" horiz-adv-x="606" d="M53 459q0 2 6 33l17 79q6 25 30 25h422q20 0 21 -16q0 -2 -6 -33l-17 -80q-6 -25 -30 -25h-422q-21 1 -21 17z" />
<glyph unicode="&#xae;" horiz-adv-x="1138" d="M156 970.5q0 192.5 142 327t336.5 134.5t337 -134.5t142.5 -327t-142.5 -326.5t-337 -134t-336.5 134t-142 326.5zM227 971q0 -162 120 -275.5t288 -113.5t287.5 113.5t119.5 275.5t-119.5 275.5t-287.5 113.5t-288 -113.5t-120 -275.5zM397 756q47 4 61.5 17t14.5 65 v293q0 47 -12 57t-64 16v41h250q109 0 166 -27.5t57 -105.5q0 -47 -28.5 -76.5t-52 -38t-68.5 -18.5q55 -33 78.5 -81t32 -77.5t28.5 -29.5q33 0 33 67h41q0 -49 -24.5 -95t-84 -46t-87 39t-30.5 86t-26 86t-74 39h-22v-123q0 -57 11 -68.5t67 -19.5v-39h-267v39zM586 1010 h43q117 0 116 92q0 102 -88 102q-33 0 -49 -10t-19 -23.5t-3 -44.5v-116z" />
<glyph unicode="&#xaf;" horiz-adv-x="681" d="M125 1237q0 8 4 20l14 66q4 23 29 23h455q20 0 20 -19q0 -8 -4 -20l-14 -66q-4 -23 -29 -22h-455q-20 0 -20 18z" />
<glyph unicode="&#xb0;" d="M281 1087.5q0 131.5 93 223.5t224 92q129 0 222 -92t93 -223.5t-93 -223.5t-222 -92q-131 0 -224 92t-93 223.5zM408 1087q0 -78 55 -133t133 -55t134 55.5t56 133t-56 133t-134 55.5t-133 -54.5t-55 -134.5z" />
<glyph unicode="&#xb1;" d="M45 16q0 18 4 23.5t23 5.5h876q18 0 23.5 -5t5.5 -24v-90q0 -18 -5 -23t-24 -5h-876q-18 0 -22.5 5t-4.5 23v90zM45 475v90q0 18 4 23.5t23 5.5h364v360q0 20 5 24.5t22 4.5h94q18 0 22.5 -4t4.5 -25v-360h364q18 0 23.5 -5t5.5 -24v-90q0 -18 -5 -23.5t-24 -5.5h-364 v-294q0 -18 -4.5 -23.5t-22.5 -5.5h-94q-18 0 -22.5 5t-4.5 24v294h-364q-18 0 -22.5 5.5t-4.5 23.5z" />
<glyph unicode="&#xb2;" horiz-adv-x="681" d="M102 547q0 53 34 129t97 139q53 53 149.5 118.5t152 115t55.5 96.5q0 78 -86 78q-55 0 -92 -35t-56.5 -70t-31.5 -35q-10 0 -19 4l-47 17q-29 12 -29 22q0 14 18.5 46t52.5 69t92.5 64.5t123.5 27.5q92 0 151.5 -43t59.5 -129q0 -33 -6 -60.5t-25 -53.5l-30 -43 q-12 -16 -45 -42l-47 -36q-13 -10 -55 -38t-52 -34q-102 -70 -138 -105.5t-73 -107.5h332q31 0 30 -18q0 -10 -2 -21l-10 -51q-4 -29 -37 -29h-440q-27 0 -27 25z" />
<glyph unicode="&#xb3;" horiz-adv-x="681" d="M84 575q0 10 6 21l29 53q8 18 22 19q2 0 57.5 -26t110.5 -26q86 0 135.5 50.5t49.5 124.5q0 98 -144 98h-45q-29 2 -29 24q0 12 3 19l10 39q8 29 37 28h45q72 0 127 42t55 112t-92 70q-55 0 -109.5 -39t-58.5 -39q-6 0 -19 8l-38 39q-8 8 -9 16q0 16 31 45t92.5 54.5 t130.5 25.5q92 0 147.5 -46t55.5 -118q0 -139 -147 -215q35 -23 47 -32t29.5 -42.5t17.5 -78.5q0 -123 -96.5 -209t-243.5 -86q-66 0 -136.5 22t-70.5 47z" />
<glyph unicode="&#xb4;" horiz-adv-x="681" d="M362 1190q0 4 11 14l317 223q10 6 18.5 6.5t18.5 -14.5l57 -94q0 -2 3.5 -7t3.5 -9q0 -14 -15 -19l-354 -160q-8 -4 -14 -4q-8 0 -17 13l-22 35q-7 10 -7 16z" />
<glyph unicode="&#xb5;" horiz-adv-x="1099" d="M-129 -401q0 2 1 7t1 7l16 72q6 20 25 20h111l241 1159h-149q-16 0 -17 13q0 4 6 32l11 49q6 25 26 25h277q14 -2 14 -14q0 -8 -10 -49l-117 -572q-23 -102 -22 -133q0 -49 26.5 -77.5t77.5 -28.5q68 0 137.5 40.5t102.5 81.5l20 30l18 27q7 11 14 29.5t12 27.5 t11.5 30.5t8.5 27t8 30t6 26.5t6 28l6 29l95 447q4 16 24 20l98 23q18 6 27 6q6 0 6 -8q0 -2 -4 -23l-151 -713q-14 -76 -15 -100q0 -8 1 -24.5t1 -24.5h142q16 0 16 -13q0 -4 -6 -32l-10 -49q-6 -25 -27 -25h-117q-70 0 -93.5 19.5t-31.5 60.5q-4 20 -4 84h-4 q-59 -80 -150.5 -136.5t-187.5 -56.5q-53 0 -115 49l-63 -315h143q18 0 19 -12q0 -2 -1 -7t-1 -8l-17 -71q-6 -20 -24 -21h-400q-18 1 -18 13z" />
<glyph unicode="&#xb6;" horiz-adv-x="1251" d="M141 881q0 266 135 413q14 16 34 30.5t36 24t41 18.5t41 14t45 9.5l42 6.5t44 3t39 2t40 1h36h551q18 0 23 -5t5 -22v-78q0 -16 -6 -21t-22 -5h-138v-1626q0 -16 -5 -21.5t-23 -5.5h-84q-16 0 -22.5 5t-6.5 22v1626h-131v-1626q0 -16 -5 -21.5t-24 -5.5h-84q-18 0 -23 5 t-5 22v710q-119 -14 -152 -14q-381 0 -381 539zM319 879q0 -201 57.5 -301.5t203.5 -100.5q43 0 94 10v785q-111 0 -168 -10.5t-105.5 -50.5t-65 -117.5t-16.5 -214.5z" />
<glyph unicode="&#xb7;" d="M418 520q0 53 37 90t90 37t90 -37t37 -90t-37 -90t-90 -37t-90 37t-37 90z" />
<glyph unicode="&#xb8;" horiz-adv-x="681" d="M-37 -369q0 8 2 13l23 67q4 10 14 10q2 0 33 -8t67 -8q90 0 90.5 51t-106.5 51q-31 0 -31 19q0 4 1 7t1 5l49 162h117l-37 -119q35 -4 54.5 -9t45 -30.5t25.5 -68.5q0 -76 -57 -123t-164 -47q-127 -1 -127 28z" />
<glyph unicode="&#xb9;" horiz-adv-x="681" d="M164 535q0 6 6 32l10 45q4 20 25 21h129l115 530l-158 -76q-16 -8 -25 -8q-12 0 -24 23l-15 26q-6 12 -6 15q0 8 21 24l252 142q16 8 26 8h60q29 0 28 -12q0 -14 -4 -23l-139 -649h106q16 0 17 -12q0 -6 -6 -33l-11 -45q-6 -20 -24 -21h-367q-16 1 -16 13z" />
<glyph unicode="&#xba;" horiz-adv-x="833" d="M211 877q0 188 95 328.5t267 140.5q104 0 163 -59.5t59 -178.5q0 -182 -98.5 -324.5t-268.5 -142.5q-217 0 -217 236zM348 879q0 -127 98 -127q70 0 120 61t70.5 139t20.5 158q0 125 -98 125q-55 0 -98 -34t-66.5 -89t-35 -114.5t-11.5 -118.5z" />
<glyph unicode="&#xbb;" horiz-adv-x="1062" d="M0 84q0 8 8 16l363 400l-174 385q-6 12 -7 16q0 14 19 21l57 26q16 8 21 8q10 0 14 -12l252 -434q8 -8 8 -18q0 -4 -14 -19l-434 -434q-16 -16 -23 -16l-18 6l-62 39q-10 10 -10 16zM379 84q0 8 8 16l363 400l-175 385q-6 12 -6 16q0 14 19 21l57 26q16 8 21 8 q10 0 14 -12l252 -434q8 -8 8 -18q0 -4 -14 -19l-434 -434q-16 -16 -23 -16l-18 6l-62 39q-10 10 -10 16z" />
<glyph unicode="&#xbc;" horiz-adv-x="1669" d="M174 535q0 6 6 32l10 45q6 20 25 21h129l115 530l-158 -76q-16 -8 -25 -8q-12 0 -24 23l-14 26q-6 12 -7 15q0 8 21 24l252 142q16 8 26 8h60q29 0 28 -12q0 -14 -4 -23l-139 -649h107q16 0 16 -12q0 -6 -6 -33l-10 -45q-4 -20 -25 -21h-367q-16 1 -16 13zM436 -18 q0 8 8 24l719 1321q8 18 31 19h88q20 0 21 -15q0 -6 -9 -22l-719 -1319q-8 -18 -34 -19h-82q-23 1 -23 11zM930 201q0 4 1 10t1 8l10 51q2 16 14 29l439 502l8 8q8 8 14 8q8 0 25 -4l55 -12q25 -6 25 -19q0 -10 -13 -22l-413 -469h198l56 180q6 18 12 22.5t24 4.5h46 q29 0 28 -19q0 -10 -2 -16l-37 -172h86q29 0 29 -21q0 -8 -4 -24l-8 -33q-4 -18 -11.5 -23.5t-25.5 -5.5h-90l-33 -155q-8 -29 -37 -29h-61q-29 0 -29 12q0 14 4 31l29 141h-312q-28 1 -28 17z" />
<glyph unicode="&#xbd;" horiz-adv-x="1669" d="M174 535q0 6 6 32l10 45q6 20 25 21h129l115 530l-158 -76q-16 -8 -25 -8q-12 0 -24 23l-14 26q-6 12 -7 15q0 8 21 24l252 142q16 8 26 8h60q28 0 28 -12q0 -14 -4 -23l-139 -649h107q16 0 16 -12q0 -6 -6 -33l-10 -45q-4 -20 -25 -21h-367q-16 1 -16 13zM418 -18 q0 8 8 24l719 1321q10 18 31 19h88q20 0 20 -15q0 -6 -8 -22l-719 -1319q-8 -18 -35 -19h-82q-22 1 -22 11zM942 25q0 53 34 128.5t97 139.5q53 53 149.5 118.5t152 114.5t55.5 97q0 78 -87 77q-55 0 -92 -34.5t-56 -69.5t-32 -35q-10 0 -18 4l-47 17q-29 12 -29 22 q0 14 18.5 46t52.5 69t92 64.5t124 27.5q92 0 151.5 -43t59.5 -129q0 -33 -6.5 -60.5t-24.5 -54.5l-31 -43q-12 -16 -45 -42l-46 -36q-13 -10 -55 -37.5t-52 -33.5q-102 -70 -138 -106t-73 -107h331q31 0 31 -19q0 -10 -2 -20l-10 -51q-4 -29 -37 -29h-440q-27 0 -27 25z " />
<glyph unicode="&#xbe;" horiz-adv-x="1669" d="M84 575q0 10 6 21l29 53q8 18 22 19q2 0 57.5 -26t110.5 -26q86 0 135.5 50.5t49.5 124.5q0 98 -144 98h-45q-29 2 -29 24q0 12 3 19l10 39q8 29 37 28h45q72 0 127 42t55 112t-92 70q-55 0 -109.5 -39t-58.5 -39q-6 0 -19 8l-38 39q-8 8 -9 16q0 16 31 45t92.5 54.5 t130.5 25.5q92 0 147.5 -46t55.5 -118q0 -139 -147 -215q35 -23 47 -32t29.5 -42.5t17.5 -78.5q0 -123 -96.5 -209t-243.5 -86q-66 0 -136.5 22t-70.5 47zM422 -18q0 8 8 24l719 1321q10 18 31 19h88q20 0 20 -15q0 -6 -8 -22l-719 -1319q-8 -18 -35 -19h-82q-22 1 -22 11z M930 201q0 4 1 10t1 8l10 51q2 16 14 29l439 502l8 8q8 8 14 8q8 0 25 -4l55 -12q25 -6 25 -19q0 -10 -13 -22l-413 -469h198l56 180q6 18 12 22.5t24 4.5h46q29 0 28 -19q0 -10 -2 -16l-37 -172h86q29 0 29 -21q0 -8 -4 -24l-8 -33q-4 -18 -11.5 -23.5t-25.5 -5.5h-90 l-33 -155q-8 -29 -37 -29h-61q-29 0 -29 12q0 14 4 31l29 141h-312q-28 1 -28 17z" />
<glyph unicode="&#xbf;" horiz-adv-x="948" d="M-6 -209q0 94 39 171t101.5 124t126 74.5t126.5 38.5l41 194q6 20 25 21h100q16 0 16 -13q0 -4 -6 -32l-51 -238q-4 -20 -16.5 -28.5t-50 -16.5t-62.5 -18q-113 -41 -167 -95.5t-54 -154.5q0 -158 176 -158q51 0 106.5 13.5t92 26.5t43.5 13q14 0 18 -14l18 -64 q6 -16 7 -22q0 -29 -115 -59.5t-203 -30.5q-137 0 -224 68.5t-87 199.5zM453 845.5q0 57.5 41 97.5t96 40q57 0 97 -40t40 -97.5t-40 -97t-97 -39.5q-55 0 -96 39.5t-41 97z" />
<glyph unicode="&#xc0;" horiz-adv-x="1175" d="M-80 12q0 4 6 33l17 61q4 20 24 21h84l649 1257q10 18 33 19h103q16 0 20 -4t8 -23l115 -1249h108q16 0 17 -12q0 -4 -6 -33l-17 -62q-4 -20 -24 -20h-387q-16 0 -17 12q0 4 6 33l17 61q4 20 24 21h119l-24 295h-437l-147 -295h129q16 0 16 -12q0 -4 -6 -33l-16 -62 q-6 -20 -25 -20h-372q-17 0 -17 12zM426 559h356l-34 455q-6 74 -7 194h-4q-35 -96 -82 -194zM518 1712q0 6 8 14l101 105q10 14 22 14q8 0 17 -8l211 -225l4 -2q2 -4 2 -8q-1 -8 -9 -17l-45 -45q-10 -10 -20 -10q-8 0 -14 6l-269 164q-8 4 -8 12z" />
<glyph unicode="&#xc1;" horiz-adv-x="1175" d="M-80 12q0 4 6 33l17 61q4 20 24 21h84l649 1257q10 18 33 19h103q16 0 20 -4t8 -23l115 -1249h108q16 0 17 -12q0 -4 -6 -33l-17 -62q-4 -20 -24 -20h-387q-16 0 -17 12q0 4 6 33l17 61q4 20 24 21h119l-24 295h-437l-147 -295h129q16 0 16 -12q0 -4 -6 -33l-16 -62 q-6 -20 -25 -20h-372q-17 0 -17 12zM426 559h356l-34 455q-6 74 -7 194h-4q-35 -96 -82 -194zM610 1593q0 4 11 15l317 223q8 6 18 6q8 0 19 -14l57 -94q0 -2 3 -7.5t3 -9.5q0 -14 -14 -18l-354 -160q-8 -4 -15 -4q-8 0 -16 12l-23 35q-6 8 -6 16z" />
<glyph unicode="&#xc2;" horiz-adv-x="1175" d="M-80 12q0 4 6 33l17 61q4 20 24 21h84l649 1257q10 18 33 19h103q16 0 20 -4t8 -23l115 -1249h108q16 0 17 -12q0 -4 -6 -33l-17 -62q-4 -20 -24 -20h-387q-16 0 -17 12q0 4 6 33l17 61q4 20 24 21h119l-24 295h-437l-147 -295h129q16 0 16 -12q0 -4 -6 -33l-16 -62 q-6 -20 -25 -20h-372q-17 0 -17 12zM426 559h356l-34 455q-6 74 -7 194h-4q-35 -96 -82 -194zM549 1622q0 8 14 18l248 170q10 10 18 11q2 0 21 -13l192 -186q10 -10 11 -16l-9 -17l-28 -35l-19 -12q-6 0 -20 10l-164 119l-195 -117q-12 -8 -20 -8q-10 0 -14 13l-27 45 q-8 12 -8 18z" />
<glyph unicode="&#xc3;" horiz-adv-x="1175" d="M-80 12q0 4 6 33l17 61q4 20 24 21h84l649 1257q10 18 33 19h103q16 0 20 -4t8 -23l115 -1249h108q16 0 17 -12q0 -4 -6 -33l-17 -62q-4 -20 -24 -20h-387q-16 0 -17 12q0 4 6 33l17 61q4 20 24 21h119l-24 295h-437l-147 -295h129q16 0 16 -12q0 -4 -6 -33l-16 -62 q-6 -20 -25 -20h-372q-17 0 -17 12zM426 559h356l-34 455q-6 74 -7 194h-4q-35 -96 -82 -194zM500 1645q2 31 71.5 92t147.5 61q51 0 117 -41q63 -43 98 -43t60.5 20.5t40 41t22.5 20.5q4 0 12 -4l49 -35q12 -12 13 -18q0 -12 -28 -47t-81 -70t-109 -35q-51 0 -114 43 q-66 41 -103 41q-35 0 -59.5 -20.5t-39.5 -42t-26 -21.5q-8 0 -10 2l-49 39q-12 9 -12 17z" />
<glyph unicode="&#xc4;" horiz-adv-x="1175" d="M-80 12q0 4 6 33l17 61q4 20 24 21h84l649 1257q10 18 33 19h103q16 0 20 -4t8 -23l115 -1249h108q16 0 17 -12q0 -4 -6 -33l-17 -62q-4 -20 -24 -20h-387q-16 0 -17 12q0 4 6 33l17 61q4 20 24 21h119l-24 295h-437l-147 -295h129q16 0 16 -12q0 -4 -6 -33l-16 -62 q-6 -20 -25 -20h-372q-17 0 -17 12zM426 559h356l-34 455q-6 74 -7 194h-4q-35 -96 -82 -194zM528 1683q0 43 31 74t74 31t73.5 -31t30.5 -74q0 -45 -30.5 -74.5t-73.5 -29.5t-74 30.5t-31 73.5zM903 1683q0 43 31 74t74 31t73.5 -31t30.5 -74q0 -45 -30.5 -74.5 t-73.5 -29.5t-74 30.5t-31 73.5z" />
<glyph unicode="&#xc5;" horiz-adv-x="1175" d="M-80 12q0 4 6 33l17 61q4 20 24 21h84l649 1257q10 18 33 19h103q16 0 20 -4t8 -23l115 -1249h108q16 0 17 -12q0 -4 -6 -33l-17 -62q-4 -20 -24 -20h-387q-16 0 -17 12q0 4 6 33l17 61q4 20 24 21h119l-24 295h-437l-147 -295h129q16 0 16 -12q0 -4 -6 -33l-16 -62 q-6 -20 -25 -20h-372q-17 0 -17 12zM426 559h356l-34 455q-6 74 -7 194h-4q-35 -96 -82 -194zM629 1688q0 74 57 126t129 52q76 0 131 -52.5t55 -127.5q0 -74 -55 -127.5t-131 -53.5t-131 53.5t-55 129.5zM727 1686q0 -37 25.5 -66t62.5 -29t62.5 29t25.5 66 q0 39 -25.5 66.5t-62.5 27.5t-62.5 -27.5t-25.5 -66.5z" />
<glyph unicode="&#xc6;" horiz-adv-x="1630" d="M-80 12q0 4 6 33l17 61q4 20 24 21h92l871 1259q10 16 31 17h722q20 0 21 -14q0 -4 -2 -10.5t-2 -10.5l-58 -270q-2 -23 -24 -23h-94q-16 0 -17 10q0 4 1 10.5t1 8.5l33 162h-385l-98 -469h420q20 0 20 -17q0 -10 -2 -14l-16 -82q-4 -25 -31 -25h-420l-108 -522h395 l41 195q4 23 26 22h95q16 0 16 -12q0 -10 -2 -14l-63 -303q-6 -25 -31 -25h-809q-16 0 -17 12q0 4 7 33l16 61q6 20 25 21h131l63 299h-377l-198 -299h129q16 0 16 -12q0 -4 -6 -33l-17 -62q-6 -20 -24 -20h-401q-17 0 -17 12zM528 563h316l155 725l-4 4q-70 -125 -151 -250 z" />
<glyph unicode="&#xc7;" horiz-adv-x="948" d="M104 387q0 172 37 348t109 336t197.5 260.5t285.5 100.5q104 0 203.5 -49.5t99.5 -92.5q0 -6 -2 -14t-2 -10l-47 -211q-6 -20 -24 -21h-95q-16 0 -16 13q0 6 4 22l37 172q-106 53 -178 53q-109 0 -198 -98t-139 -246.5t-77 -300t-27 -278.5t55.5 -194.5t153.5 -67.5 q84 0 203 77l37 172q4 23 24 23h95q16 0 16 -18.5t-6 -36.5l-39 -183q-6 -33 -20 -43q-59 -49 -149.5 -87t-156.5 -38l-26 -94q35 -4 54 -9t45 -30.5t26 -68.5q0 -76 -57.5 -123t-164.5 -47q-127 0 -126 28q0 8 2 13l22 67q6 10 14 10q2 0 33 -8t68 -8q90 0 90 51t-107 51 q-31 0 -30 19q0 4 1 7t1 5l43 144q-115 8 -192 128.5t-77 276.5z" />
<glyph unicode="&#xc8;" d="M-43 12q0 4 6 33l17 61q4 20 24 21h135l244 1149h-137q-16 0 -17 12q0 4 7 33l16 61q6 20 24 21h797q20 0 21 -14q0 -4 -2 -10.5t-2 -10.5l-58 -270q-6 -23 -24 -23h-95q-16 0 -16 12q0 2 1 7.5t1 9.5l33 162h-389l-101 -469h426q20 0 21 -17q0 -10 -2 -14l-17 -82 q-4 -25 -30 -25h-426l-111 -522h406l39 195q4 23 26 22h94q16 0 17 -12q0 -10 -2 -14l-64 -303q-6 -25 -31 -25h-815q-16 0 -16 12zM473 1712q0 6 8 14l101 105q10 14 22 14q8 0 17 -8l210 -225l5 -2q2 -4 2 -8q0 -8 -9 -17l-45 -45q-10 -10 -20 -10q-8 0 -14 6l-269 164 q-8 4 -8 12z" />
<glyph unicode="&#xc9;" d="M-43 12q0 4 6 33l17 61q4 20 24 21h135l244 1149h-137q-16 0 -17 12q0 4 7 33l16 61q6 20 24 21h797q20 0 21 -14q0 -4 -2 -10.5t-2 -10.5l-58 -270q-6 -23 -24 -23h-95q-16 0 -16 12q0 2 1 7.5t1 9.5l33 162h-389l-101 -469h426q20 0 21 -17q0 -10 -2 -14l-17 -82 q-4 -25 -30 -25h-426l-111 -522h406l39 195q4 23 26 22h94q16 0 17 -12q0 -10 -2 -14l-64 -303q-6 -25 -31 -25h-815q-16 0 -16 12zM565 1593q0 4 10 15l318 223q8 6 18 6q8 0 19 -14l57 -94q0 -2 3 -7.5t3 -9.5q0 -14 -14 -18l-354 -160q-8 -4 -15 -4q-8 0 -16 12l-23 35 q-6 8 -6 16z" />
<glyph unicode="&#xca;" d="M-43 12q0 4 6 33l17 61q4 20 24 21h135l244 1149h-137q-16 0 -17 12q0 4 7 33l16 61q6 20 24 21h797q20 0 21 -14q0 -4 -2 -10.5t-2 -10.5l-58 -270q-6 -23 -24 -23h-95q-16 0 -16 12q0 2 1 7.5t1 9.5l33 162h-389l-101 -469h426q20 0 21 -17q0 -10 -2 -14l-17 -82 q-4 -25 -30 -25h-426l-111 -522h406l39 195q4 23 26 22h94q16 0 17 -12q0 -10 -2 -14l-64 -303q-6 -25 -31 -25h-815q-16 0 -16 12zM442 1622q0 8 15 18l248 170q10 10 18 11q2 0 20 -13l193 -186q10 -10 10 -16l-8 -17l-29 -35l-18 -12q-6 0 -21 10l-163 119l-195 -117 q-12 -8 -20 -8q-10 0 -15 13l-26 45q-9 12 -9 18z" />
<glyph unicode="&#xcb;" d="M-43 12q0 4 6 33l17 61q4 20 24 21h135l244 1149h-137q-16 0 -17 12q0 4 7 33l16 61q6 20 24 21h797q20 0 21 -14q0 -4 -2 -10.5t-2 -10.5l-58 -270q-6 -23 -24 -23h-95q-16 0 -16 12q0 2 1 7.5t1 9.5l33 162h-389l-101 -469h426q20 0 21 -17q0 -10 -2 -14l-17 -82 q-4 -25 -30 -25h-426l-111 -522h406l39 195q4 23 26 22h94q16 0 17 -12q0 -10 -2 -14l-64 -303q-6 -25 -31 -25h-815q-16 0 -16 12zM432 1683q0 43 31 74t74 31t73.5 -31t30.5 -74q0 -45 -30.5 -74.5t-73.5 -29.5t-74 30.5t-31 73.5zM807 1683q0 43 30.5 74t73.5 31t74 -31 t31 -74q0 -45 -31 -74.5t-74 -29.5t-73.5 30.5t-30.5 73.5z" />
<glyph unicode="&#xcc;" horiz-adv-x="720" d="M-39 12q0 4 6 33l17 61q4 20 24 21h187l243 1149h-192q-16 0 -17 12q0 4 7 33l16 61q6 20 24 21h541q16 0 17 -12q0 -4 -7 -33l-16 -62q-4 -20 -25 -20h-188l-244 -1149h193q16 0 16 -12q0 -4 -6 -33l-16 -62q-4 -20 -25 -20h-539q-16 0 -16 12zM291 1712q0 6 8 14 l100 105q10 14 23 14q8 0 16 -8l211 -225l2 -2q4 -4 4 -8q0 -8 -8 -17l-45 -45q-10 -10 -20 -10q-8 0 -15 6l-268 164q-8 4 -8 12z" />
<glyph unicode="&#xcd;" horiz-adv-x="720" d="M-39 12q0 4 6 33l17 61q4 20 24 21h187l243 1149h-192q-16 0 -17 12q0 4 7 33l16 61q6 20 24 21h541q16 0 17 -12q0 -4 -7 -33l-16 -62q-4 -20 -25 -20h-188l-244 -1149h193q16 0 16 -12q0 -4 -6 -33l-16 -62q-4 -20 -25 -20h-539q-16 0 -16 12zM383 1593q0 4 10 15 l318 223q10 6 18 6t19 -14l57 -94q0 -2 3 -7.5t3 -9.5q0 -14 -14 -18l-355 -160q-8 -4 -14 -4q-8 0 -16 12l-23 35q-6 8 -6 16z" />
<glyph unicode="&#xce;" horiz-adv-x="720" d="M-39 12q0 4 6 33l17 61q4 20 24 21h187l243 1149h-192q-16 0 -17 12q0 4 7 33l16 61q6 20 24 21h541q16 0 17 -12q0 -4 -7 -33l-16 -62q-4 -20 -25 -20h-188l-244 -1149h193q16 0 16 -12q0 -4 -6 -33l-16 -62q-4 -20 -25 -20h-539q-16 0 -16 12zM291 1622q0 8 14 18 l248 170q10 10 18 11q2 0 21 -13l192 -186q10 -10 11 -16l-9 -17l-28 -35l-19 -12q-6 0 -20 10l-164 119l-195 -117q-12 -8 -20 -8q-10 0 -14 13l-27 45q-8 12 -8 18z" />
<glyph unicode="&#xcf;" horiz-adv-x="720" d="M-39 12q0 4 6 33l17 61q4 20 24 21h187l243 1149h-192q-16 0 -17 12q0 4 7 33l16 61q6 20 24 21h541q16 0 17 -12q0 -4 -7 -33l-16 -62q-4 -20 -25 -20h-188l-244 -1149h193q16 0 16 -12q0 -4 -6 -33l-16 -62q-4 -20 -25 -20h-539q-16 0 -16 12zM281 1683q0 43 30.5 74 t73.5 31t73.5 -31t30.5 -74q0 -45 -30.5 -74.5t-73.5 -29.5t-73.5 30.5t-30.5 73.5zM655 1683q0 43 31 74t74 31t73.5 -31t30.5 -74q0 -45 -30.5 -74.5t-73.5 -29.5t-74 30.5t-31 73.5z" />
<glyph unicode="&#xd0;" horiz-adv-x="1175" d="M-43 12q0 4 6 33l17 61q4 20 24 21h135l113 539h-146q-16 0 -16 12q0 4 6 33l17 61q6 20 24 21h142l104 483h-137q-16 0 -17 12q0 4 7 33l16 61q6 20 24 21h379q63 0 101.5 -1t94.5 -9.5t91 -23.5t75 -44t61.5 -70t36.5 -104.5t15 -142.5q0 -158 -48 -354.5t-134 -362.5 q-84 -158 -221 -224.5t-332 -66.5h-422q-16 0 -16 12zM305 137h141q190 0 304 142q92 106 152.5 335.5t60.5 395.5q0 86 -20.5 140t-63.5 77.5t-83 31t-104 7.5h-149l-101 -473h273q16 0 16 -13q0 -4 -6 -32l-16 -62q-4 -20 -25 -20h-268z" />
<glyph unicode="&#xd1;" horiz-adv-x="1214" d="M-39 12q0 4 6 33l17 61q4 20 24 21h133l246 1149h-135q-16 0 -16 12q0 4 6 33l16 61q4 20 25 21h282q27 0 29 -25l223 -979q14 -76 21 -153h4q8 104 22 166l187 864h-138q-16 0 -16 12q0 4 6 33l17 61q6 20 24 21h412q16 0 16 -12q0 -4 -6 -33l-16 -62q-6 -20 -25 -20 h-131l-258 -1200q-2 -4 -4 -13.5t-3 -13.5t-2 -11t-3 -11t-4.5 -9.5t-4.5 -7.5l-5 -5q-3 -3 -7 -4t-8 -1h-94q-35 0 -41 25l-236 1040q-12 53 -16 145h-4q-2 -51 -21 -153l-198 -930h133q16 0 16 -12q0 -4 -6 -33l-16 -62q-6 -20 -25 -20h-410q-16 0 -16 12zM498 1645 q2 31 71.5 92t147.5 61q51 0 117 -41q63 -43 98 -43t60.5 20.5t40 41t22.5 20.5q4 0 12 -4l49 -35q12 -12 12 -18q0 -12 -27.5 -47t-80.5 -70t-109 -35q-51 0 -114 43q-66 41 -103 41q-35 0 -59.5 -20.5t-39.5 -42t-26 -21.5q-8 0 -10 2l-49 39q-12 9 -12 17z" />
<glyph unicode="&#xd2;" horiz-adv-x="1099" d="M107 399q0 178 34.5 353.5t103 331t189.5 252t277 96.5q193 0 275.5 -105.5t82.5 -302.5q0 -195 -36 -376t-105.5 -335.5t-189.5 -248t-271 -93.5q-201 0 -280.5 110.5t-79.5 317.5zM274 381q0 -139 44.5 -205.5t158.5 -66.5q172 0 264 213q84 172 122 366.5t38 331.5 q0 141 -44 207.5t-158.5 66.5t-203.5 -109.5t-133.5 -268t-66 -298t-21.5 -237.5zM479 1712q0 6 8 14l101 105q10 14 22 14q8 0 17 -8l211 -225l2 -2q4 -4 4 -8q0 -8 -8 -17l-45 -45q-10 -10 -21 -10q-8 0 -14 6l-269 164q-8 4 -8 12z" />
<glyph unicode="&#xd3;" horiz-adv-x="1099" d="M107 399q0 178 34.5 353.5t103 331t189.5 252t277 96.5q193 0 275.5 -105.5t82.5 -302.5q0 -195 -36 -376t-105.5 -335.5t-189.5 -248t-271 -93.5q-201 0 -280.5 110.5t-79.5 317.5zM274 381q0 -139 44.5 -205.5t158.5 -66.5q172 0 264 213q84 172 122 366.5t38 331.5 q0 141 -44 207.5t-158.5 66.5t-203.5 -109.5t-133.5 -268t-66 -298t-21.5 -237.5zM571 1593q0 4 11 15l317 223q10 6 18.5 6t18.5 -14l57 -94q0 -2 3 -7.5t3 -9.5q0 -14 -14 -18l-354 -160q-8 -4 -15 -4q-8 0 -16 12l-22 35q-7 8 -7 16z" />
<glyph unicode="&#xd4;" horiz-adv-x="1099" d="M107 399q0 178 34.5 353.5t103 331t189.5 252t277 96.5q193 0 275.5 -105.5t82.5 -302.5q0 -195 -36 -376t-105.5 -335.5t-189.5 -248t-271 -93.5q-201 0 -280.5 110.5t-79.5 317.5zM274 381q0 -139 44.5 -205.5t158.5 -66.5q172 0 264 213q84 172 122 366.5t38 331.5 q0 141 -44 207.5t-158.5 66.5t-203.5 -109.5t-133.5 -268t-66 -298t-21.5 -237.5zM479 1622q0 8 15 18l247 170q10 10 19 11q2 0 20 -13l193 -186q10 -10 10 -16l-8 -17l-29 -35l-18 -12q-6 0 -21 10l-164 119l-194 -117q-12 -8 -21 -8q-10 0 -14 13l-27 45q-8 12 -8 18z " />
<glyph unicode="&#xd5;" horiz-adv-x="1099" d="M107 399q0 178 34.5 353.5t103 331t189.5 252t277 96.5q193 0 275.5 -105.5t82.5 -302.5q0 -195 -36 -376t-105.5 -335.5t-189.5 -248t-271 -93.5q-201 0 -280.5 110.5t-79.5 317.5zM274 381q0 -139 44.5 -205.5t158.5 -66.5q172 0 264 213q84 172 122 366.5t38 331.5 q0 141 -44 207.5t-158.5 66.5t-203.5 -109.5t-133.5 -268t-66 -298t-21.5 -237.5zM420 1645q2 31 71.5 92t147.5 61q51 0 117 -41q63 -43 98 -43t60.5 20.5t40 41t22.5 20.5q4 0 12 -4l49 -35q12 -12 13 -18q0 -12 -28 -47t-81 -70t-108 -35q-51 0 -115 43q-66 41 -103 41 q-35 0 -59.5 -20.5t-39.5 -42t-25 -21.5q-8 0 -11 2l-49 39q-12 9 -12 17z" />
<glyph unicode="&#xd6;" horiz-adv-x="1099" d="M107 399q0 178 34.5 353.5t103 331t189.5 252t277 96.5q193 0 275.5 -105.5t82.5 -302.5q0 -195 -36 -376t-105.5 -335.5t-189.5 -248t-271 -93.5q-201 0 -280.5 110.5t-79.5 317.5zM274 381q0 -139 44.5 -205.5t158.5 -66.5q172 0 264 213q84 172 122 366.5t38 331.5 q0 141 -44 207.5t-158.5 66.5t-203.5 -109.5t-133.5 -268t-66 -298t-21.5 -237.5zM469 1683q0 43 30.5 74t73.5 31t74 -31t31 -74q0 -45 -31 -74.5t-74 -29.5t-73.5 30.5t-30.5 73.5zM844 1683q0 43 30.5 74t73.5 31t74 -31t31 -74q0 -45 -31 -74.5t-74 -29.5t-73.5 30.5 t-30.5 73.5z" />
<glyph unicode="&#xd7;" d="M135 242q0 8 12 20l261 258l-261 256q-12 10 -12 20.5t12 20.5l66 64q14 14 20.5 14t20.5 -14l256 -258l254 258q14 14 20.5 14t20.5 -14l65 -64q12 -10 12.5 -20.5t-12.5 -20.5l-245 -256l245 -258q12 -12 13 -20q0 -6 -13 -19l-65 -65q-14 -14 -21 -15q-10 0 -20 15 l-254 260l-256 -260q-10 -14 -21 -15q-6 0 -20 15l-66 65q-12 13 -12 19z" />
<glyph unicode="&#xd8;" horiz-adv-x="1099" d="M12 2q0 6 6 14l115 158q-29 98 -29 229.5t20.5 266.5t68 273t116 245.5t177 175.5t239.5 68q156 0 254 -93l80 109q10 16 18 16q4 0 17 -8l47 -35q16 -16 16 -18q0 -10 -6 -17l-113 -153q29 -115 29 -203q0 -190 -36 -370.5t-106.5 -338t-194.5 -254t-281 -96.5 q-166 0 -256 97l-82 -113q-10 -12 -20.5 -12t-22.5 12l-43 33q-13 8 -13 14zM260 442q0 -57 6 -86l617 852q-35 86 -164 86q-106 0 -191.5 -74.5t-133.5 -181t-79.5 -233.5t-43 -217.5t-11.5 -145.5zM291 203q12 -29 24.5 -46.5t47 -32.5t86.5 -15q104 0 190 74.5t134 181 t82 234.5t45 223.5t11 156.5q0 57 -2 86z" />
<glyph unicode="&#xd9;" horiz-adv-x="1214" d="M147 258q0 70 15 127l188 891h-129q-16 0 -16 12q0 4 6 33l16 61q6 20 25 21h424q16 0 16 -12q0 -4 -6 -33l-16 -62q-6 -20 -25 -20h-135l-186 -891q-16 -74 -17 -115q0 -162 213 -161q272 0 330 276l186 891h-129q-16 0 -16 12q0 4 6 33l16 61q4 20 25 21h424 q16 0 16 -12q0 -4 -6 -33l-16 -62q-4 -20 -25 -20h-135l-190 -891q-41 -193 -155 -303.5t-353 -110.5q-174 0 -262.5 68.5t-88.5 218.5zM537 1712q0 6 8 14l100 105q10 14 23 14q8 0 16 -8l211 -225l2 -2q4 -4 4 -8q0 -8 -8 -17l-45 -45q-10 -10 -21 -10q-8 0 -14 6 l-268 164q-8 4 -8 12z" />
<glyph unicode="&#xda;" horiz-adv-x="1214" d="M147 258q0 70 15 127l188 891h-129q-16 0 -16 12q0 4 6 33l16 61q6 20 25 21h424q16 0 16 -12q0 -4 -6 -33l-16 -62q-6 -20 -25 -20h-135l-186 -891q-16 -74 -17 -115q0 -162 213 -161q272 0 330 276l186 891h-129q-16 0 -16 12q0 4 6 33l16 61q4 20 25 21h424 q16 0 16 -12q0 -4 -6 -33l-16 -62q-4 -20 -25 -20h-135l-190 -891q-41 -193 -155 -303.5t-353 -110.5q-174 0 -262.5 68.5t-88.5 218.5zM629 1593q0 4 10 15l317 223q10 6 18.5 6t18.5 -14l58 -94q0 -2 3 -7.5t3 -9.5q0 -14 -15 -18l-354 -160q-8 -4 -14 -4q-8 0 -17 12 l-22 35q-6 8 -6 16z" />
<glyph unicode="&#xdb;" horiz-adv-x="1214" d="M147 258q0 70 15 127l188 891h-129q-16 0 -16 12q0 4 6 33l16 61q6 20 25 21h424q16 0 16 -12q0 -4 -6 -33l-16 -62q-6 -20 -25 -20h-135l-186 -891q-16 -74 -17 -115q0 -162 213 -161q272 0 330 276l186 891h-129q-16 0 -16 12q0 4 6 33l16 61q4 20 25 21h424 q16 0 16 -12q0 -4 -6 -33l-16 -62q-4 -20 -25 -20h-135l-190 -891q-41 -193 -155 -303.5t-353 -110.5q-174 0 -262.5 68.5t-88.5 218.5zM537 1622q0 8 14 18l248 170q10 10 18 11q2 0 21 -13l192 -186q10 -10 10 -16l-8 -17l-28 -35l-19 -12q-6 0 -20 10l-164 119l-195 -117 q-12 -8 -20 -8q-10 0 -15 13l-26 45q-8 12 -8 18z" />
<glyph unicode="&#xdc;" horiz-adv-x="1214" d="M147 258q0 70 15 127l188 891h-129q-16 0 -16 12q0 4 6 33l16 61q6 20 25 21h424q16 0 16 -12q0 -4 -6 -33l-16 -62q-6 -20 -25 -20h-135l-186 -891q-16 -74 -17 -115q0 -162 213 -161q272 0 330 276l186 891h-129q-16 0 -16 12q0 4 6 33l16 61q4 20 25 21h424 q16 0 16 -12q0 -4 -6 -33l-16 -62q-4 -20 -25 -20h-135l-190 -891q-41 -193 -155 -303.5t-353 -110.5q-174 0 -262.5 68.5t-88.5 218.5zM526 1683q0 43 31 74t74 31t73.5 -31t30.5 -74q0 -45 -30.5 -74.5t-73.5 -29.5t-74 30.5t-31 73.5zM901 1683q0 43 31 74t74 31 t73.5 -31t30.5 -74q0 -45 -30.5 -74.5t-73.5 -29.5t-74 30.5t-31 73.5z" />
<glyph unicode="&#xdd;" horiz-adv-x="985" d="M131 1288q0 4 6 33l17 61q6 20 24 21h363q16 0 16 -12q0 -4 -6 -33l-16 -62q-6 -20 -25 -20h-113l113 -432q14 -53 18 -127h4q31 59 70 121l279 438h-123q-16 0 -17 12q0 4 7 33l16 61q6 20 24 21h383q16 0 17 -12q0 -4 -6 -33l-17 -62q-6 -20 -24 -20h-78l-475 -682 l-99 -467h144q16 0 16 -14q0 -2 -1 -7.5t-1 -7.5l-16 -78q-4 -20 -25 -20h-450q-16 0 -17 14q0 2 1 7.5t1 7.5l17 77q6 20 24 21h148l96 467l-186 682h-93q-16 0 -16 12zM514 1593q0 4 10 15l318 223q10 6 18 6t19 -14l57 -94q0 -2 3 -7.5t3 -9.5q0 -14 -14 -18l-355 -160 q-8 -4 -14 -4q-8 0 -16 12l-23 35q-6 8 -6 16z" />
<glyph unicode="&#xde;" d="M-37 12q0 4 6 33l17 61q6 20 24 21h133l244 1149h-137q-16 0 -17 12q0 4 7 33l16 61q6 20 25 21h407q16 0 17 -12q0 -4 -7 -33l-16 -62q-6 -20 -25 -20h-110l-33 -160h109q55 0 85.5 -1t85 -8t85 -24.5t64.5 -46t50.5 -77t16.5 -113.5q0 -262 -187 -422 q-111 -94 -331 -94h-144l-43 -203h156q16 0 16 -12q0 -4 -6 -33l-16 -62q-4 -20 -25 -20h-450q-17 0 -17 12zM379 467h121q168 0 235 68q106 117 107 268q0 102 -43 139t-117 37h-195z" />
<glyph unicode="&#xdf;" horiz-adv-x="1062" d="M-336 -383q0 6 1 11t4 11.5t3 8.5l23 67q6 16 14 17q2 0 21.5 -4t50.5 -8.5t61 -4.5q57 0 99.5 24.5t64 69t30.5 73t17 69.5l232 1165q10 49 19 84t38 90.5t68 90t110.5 61t165.5 26.5q123 0 210 -57t87 -186q0 -86 -47 -153.5t-102.5 -102.5t-102.5 -77t-47 -83 q0 -37 33 -87t92 -116.5t74 -87.5q84 -106 84 -219q0 -156 -98.5 -242t-247.5 -86q-59 0 -119 14.5t-92.5 32t-32.5 27.5q0 12 12 33l31 69q4 10 18 11q6 0 67.5 -24.5t123.5 -24.5q80 0 140 47t60 127q0 68 -44 138.5t-97 120.5t-97 116.5t-44 129.5q0 59 30.5 105.5 t73.5 79.5l86 63q43 31 74 75t31 99q0 63 -49.5 101.5t-124.5 38.5q-63 0 -109.5 -23.5t-71 -65.5t-36 -73t-19.5 -72l-231 -1173q-10 -53 -18.5 -83t-36 -91.5t-63.5 -96t-104.5 -64.5t-156.5 -30q-57 0 -107.5 11.5t-50.5 27.5z" />
<glyph unicode="&#xe0;" d="M72 272q0 84 17 179.5t56 196t94.5 181t137.5 132t176 51.5q61 0 109.5 -22.5t59.5 -35l46 -53.5l29 64q6 18 18 18h90q16 0 17 -12q0 -2 -4 -23l-138 -635q-14 -76 -14 -137q0 -10 1 -27.5t1 -29.5h135q18 -1 19 -13q0 -2 -1 -7t-1 -7l-17 -72q-6 -20 -24 -20h-156 q-49 0 -78 47q-14 23 -18 48.5t-2 57t2 37.5q-145 -219 -324 -219q-111 0 -171 82t-60 219zM227 281q0 -172 125 -172q82 0 152.5 68.5t111.5 154.5t60 176l59 278q-88 88 -184 88q-104 0 -182 -114.5t-110 -245.5t-32 -233zM442 1309q0 6 9 14l100 104q10 14 22 15 q8 0 17 -8l211 -226l2 -4q4 -2 4 -6q0 -8 -8 -16l-45 -45q-10 -10 -21 -11q-8 0 -14 7l-268 163q-9 5 -9 13z" />
<glyph unicode="&#xe1;" d="M72 272q0 84 17 179.5t56 196t94.5 181t137.5 132t176 51.5q61 0 109.5 -22.5t59.5 -35l46 -53.5l29 64q6 18 18 18h90q16 0 17 -12q0 -2 -4 -23l-138 -635q-14 -76 -14 -137q0 -10 1 -27.5t1 -29.5h135q18 -1 19 -13q0 -2 -1 -7t-1 -7l-17 -72q-6 -20 -24 -20h-156 q-49 0 -78 47q-14 23 -18 48.5t-2 57t2 37.5q-145 -219 -324 -219q-111 0 -171 82t-60 219zM227 281q0 -172 125 -172q82 0 152.5 68.5t111.5 154.5t60 176l59 278q-88 88 -184 88q-104 0 -182 -114.5t-110 -245.5t-32 -233zM535 1190q0 4 10 14l317 223q10 6 18.5 6.5 t18.5 -14.5l57 -94q0 -2 3.5 -7t3.5 -9q0 -14 -15 -19l-354 -159q-8 -4 -14 -5q-8 0 -17 13l-22 35q-6 10 -6 16z" />
<glyph unicode="&#xe2;" d="M72 272q0 84 17 179.5t56 196t94.5 181t137.5 132t176 51.5q61 0 109.5 -22.5t59.5 -35l46 -53.5l29 64q6 18 18 18h90q16 0 17 -12q0 -2 -4 -23l-138 -635q-14 -76 -14 -137q0 -10 1 -27.5t1 -29.5h135q18 -1 19 -13q0 -2 -1 -7t-1 -7l-17 -72q-6 -20 -24 -20h-156 q-49 0 -78 47q-14 23 -18 48.5t-2 57t2 37.5q-145 -219 -324 -219q-111 0 -171 82t-60 219zM227 281q0 -172 125 -172q82 0 152.5 68.5t111.5 154.5t60 176l59 278q-88 88 -184 88q-104 0 -182 -114.5t-110 -245.5t-32 -233zM442 1219q0 8 15 18l248 170q10 10 18 10 q2 0 20 -12l193 -186q10 -10 10 -17l-8 -16l-29 -35l-18 -12q-6 0 -21 10l-163 119l-195 -117q-12 -8 -20 -8q-10 0 -15 12l-26 45q-9 13 -9 19z" />
<glyph unicode="&#xe3;" d="M72 272q0 84 17 179.5t56 196t94.5 181t137.5 132t176 51.5q61 0 109.5 -22.5t59.5 -35l46 -53.5l29 64q6 18 18 18h90q16 0 17 -12q0 -2 -4 -23l-138 -635q-14 -76 -14 -137q0 -10 1 -27.5t1 -29.5h135q18 -1 19 -13q0 -2 -1 -7t-1 -7l-17 -72q-6 -20 -24 -20h-156 q-49 0 -78 47q-14 23 -18 48.5t-2 57t2 37.5q-145 -219 -324 -219q-111 0 -171 82t-60 219zM227 281q0 -172 125 -172q82 0 152.5 68.5t111.5 154.5t60 176l59 278q-88 88 -184 88q-104 0 -182 -114.5t-110 -245.5t-32 -233zM352 1241q2 31 72 92.5t147 61.5q51 0 117 -41 q63 -43 98 -43t60.5 20.5t40 41t22.5 20.5q4 0 13 -4l49 -35q12 -12 12 -19q0 -12 -27.5 -47t-81 -69.5t-108.5 -34.5q-51 0 -115 43q-66 41 -102 41q-35 0 -59.5 -21.5t-40 -42t-25.5 -20.5q-8 0 -10 2l-49 39q-13 8 -13 16z" />
<glyph unicode="&#xe4;" d="M72 272q0 84 17 179.5t56 196t94.5 181t137.5 132t176 51.5q61 0 109.5 -22.5t59.5 -35l46 -53.5l29 64q6 18 18 18h90q16 0 17 -12q0 -2 -4 -23l-138 -635q-14 -76 -14 -137q0 -10 1 -27.5t1 -29.5h135q18 -1 19 -13q0 -2 -1 -7t-1 -7l-17 -72q-6 -20 -24 -20h-156 q-49 0 -78 47q-14 23 -18 48.5t-2 57t2 37.5q-145 -219 -324 -219q-111 0 -171 82t-60 219zM227 281q0 -172 125 -172q82 0 152.5 68.5t111.5 154.5t60 176l59 278q-88 88 -184 88q-104 0 -182 -114.5t-110 -245.5t-32 -233zM401 1280q0 43 31 73.5t74 30.5t73.5 -30.5 t30.5 -73.5q0 -45 -30.5 -74.5t-73.5 -29.5t-74 30.5t-31 73.5zM776 1280q0 43 31 73.5t74 30.5t73.5 -30.5t30.5 -73.5q0 -45 -30.5 -74.5t-73.5 -29.5t-74 30.5t-31 73.5z" />
<glyph unicode="&#xe5;" d="M72 272q0 84 17 179.5t56 196t94.5 181t137.5 132t176 51.5q61 0 109.5 -22.5t59.5 -35l46 -53.5l29 64q6 18 18 18h90q16 0 17 -12q0 -2 -4 -23l-138 -635q-14 -76 -14 -137q0 -10 1 -27.5t1 -29.5h135q18 -1 19 -13q0 -2 -1 -7t-1 -7l-17 -72q-6 -20 -24 -20h-156 q-49 0 -78 47q-14 23 -18 48.5t-2 57t2 37.5q-145 -219 -324 -219q-111 0 -171 82t-60 219zM227 281q0 -172 125 -172q82 0 152.5 68.5t111.5 154.5t60 176l59 278q-88 88 -184 88q-104 0 -182 -114.5t-110 -245.5t-32 -233zM471 1284q0 74 57.5 126t128.5 52 q76 0 131.5 -52t55.5 -128q0 -74 -55.5 -127t-131 -53t-131 53t-55.5 129zM569 1282q0 -37 26 -65.5t62.5 -28.5t62 28.5t25.5 65.5q0 39 -25.5 66.5t-62 27.5t-62.5 -27.5t-26 -66.5z" />
<glyph unicode="&#xe6;" horiz-adv-x="1402" d="M33 219q0 72 24.5 128t57 92t92 62.5t102.5 40t114 20.5t101 8l92 3l17 80q2 6 4 20.5t4 20.5t3 19.5t1 20.5v20q0 12 -2 21t-6 20.5t-10 21.5q-33 57 -127 57q-53 0 -110.5 -14t-94.5 -28.5t-43 -14.5q-12 0 -16 23l-19 55q-4 12 -4 20q0 31 119 64t198 33 q168 0 232 -150q72 70 143.5 110t171.5 40q133 0 202 -72t69 -190q0 -217 -258 -275q-94 -20 -361 -29q0 -12 -5 -57t-5 -70q0 -205 186 -204q80 0 146.5 24.5t102.5 49t44 24.5q10 0 19 -12l49 -74q4 -8 4 -10q0 -14 -51.5 -48t-144.5 -66t-183 -32q-109 0 -184.5 52.5 t-108.5 142.5q-152 -195 -336 -195q-104 0 -166.5 65.5t-62.5 182.5zM188 231q0 -57 28 -89.5t79 -32.5q102 0 174 62t94 159l27 116q-47 0 -63.5 -1t-70 -5t-80 -11t-68.5 -23.5t-63.5 -38t-39 -56.5t-17.5 -80zM752 573q248 10 309 25q141 33 141 145q0 66 -38 104 t-109 38q-63 0 -115.5 -26.5t-81.5 -57.5t-54.5 -86.5t-32.5 -76t-19 -65.5z" />
<glyph unicode="&#xe7;" horiz-adv-x="796" d="M66 313q0 176 58 332t182 261.5t288 105.5q63 0 148 -24.5t85 -67.5q0 -4 -4 -25l-41 -195q-6 -23 -26 -22h-90q-18 0 -19 14q0 6 4 23l31 139q-82 20 -104 20q-117 0 -201 -93t-120 -216t-36 -250q0 -201 185 -200q59 0 111 20.5t83 42t39 21.5q14 0 16 -9l33 -71 q4 -4 4 -17q0 -14 -45 -44.5t-120.5 -57.5t-143.5 -27l-27 -92q35 -4 54.5 -9t45 -30.5t25.5 -68.5q0 -76 -57 -123t-164 -47q-127 0 -127 28q0 8 2 13l23 67q6 10 14 10q2 0 33 -8t67 -8q90 0 90 51t-106 51q-31 0 -31 19q0 4 1 7t1 5l43 144q-204 48 -204 331z" />
<glyph unicode="&#xe8;" horiz-adv-x="909" d="M68 346q0 268 147 467t371 199q133 0 201.5 -72t68.5 -190q0 -74 -27.5 -132.5t-64.5 -95.5t-101.5 -62.5t-112.5 -38.5t-125 -20.5t-108.5 -8.5t-93.5 -1q0 -10 -1 -26.5t-1 -24.5q0 -225 193 -225q80 0 146.5 24.5t102 49t44.5 24.5q10 0 18 -12l49 -74q4 -8 4 -10 q0 -14 -51 -48t-144.5 -66t-183.5 -32q-168 0 -249.5 99.5t-81.5 275.5zM242 518q469 0 469 225q0 66 -38 104t-110 38q-239 0 -321 -367zM385 1309q0 6 8 14l101 104q10 14 22 15q8 0 16 -8l211 -226l2 -4q4 -2 5 -6q0 -8 -9 -16l-45 -45q-10 -10 -20 -11q-8 0 -15 7 l-268 163q-8 5 -8 13z" />
<glyph unicode="&#xe9;" horiz-adv-x="909" d="M68 346q0 268 147 467t371 199q133 0 201.5 -72t68.5 -190q0 -74 -27.5 -132.5t-64.5 -95.5t-101.5 -62.5t-112.5 -38.5t-125 -20.5t-108.5 -8.5t-93.5 -1q0 -10 -1 -26.5t-1 -24.5q0 -225 193 -225q80 0 146.5 24.5t102 49t44.5 24.5q10 0 18 -12l49 -74q4 -8 4 -10 q0 -14 -51 -48t-144.5 -66t-183.5 -32q-168 0 -249.5 99.5t-81.5 275.5zM242 518q469 0 469 225q0 66 -38 104t-110 38q-239 0 -321 -367zM477 1190q0 4 10 14l318 223q10 6 18 6.5t19 -14.5l57 -94q0 -2 3 -7t3 -9q0 -14 -14 -19l-354 -160q-8 -4 -15 -4q-8 0 -16 13 l-23 35q-6 10 -6 16z" />
<glyph unicode="&#xea;" horiz-adv-x="909" d="M68 346q0 268 147 467t371 199q133 0 201.5 -72t68.5 -190q0 -74 -27.5 -132.5t-64.5 -95.5t-101.5 -62.5t-112.5 -38.5t-125 -20.5t-108.5 -8.5t-93.5 -1q0 -10 -1 -26.5t-1 -24.5q0 -225 193 -225q80 0 146.5 24.5t102 49t44.5 24.5q10 0 18 -12l49 -74q4 -8 4 -10 q0 -14 -51 -48t-144.5 -66t-183.5 -32q-168 0 -249.5 99.5t-81.5 275.5zM242 518q469 0 469 225q0 66 -38 104t-110 38q-239 0 -321 -367zM385 1219q0 8 14 18l248 170q10 10 19 10q2 0 20 -12l193 -186q10 -10 10 -17l-8 -16l-29 -35l-18 -12q-6 0 -21 10l-164 119 l-194 -117q-12 -8 -21 -8q-10 0 -14 12l-27 45q-8 13 -8 19z" />
<glyph unicode="&#xeb;" horiz-adv-x="909" d="M68 346q0 268 147 467t371 199q133 0 201.5 -72t68.5 -190q0 -74 -27.5 -132.5t-64.5 -95.5t-101.5 -62.5t-112.5 -38.5t-125 -20.5t-108.5 -8.5t-93.5 -1q0 -10 -1 -26.5t-1 -24.5q0 -225 193 -225q80 0 146.5 24.5t102 49t44.5 24.5q10 0 18 -12l49 -74q4 -8 4 -10 q0 -14 -51 -48t-144.5 -66t-183.5 -32q-168 0 -249.5 99.5t-81.5 275.5zM242 518q469 0 469 225q0 66 -38 104t-110 38q-239 0 -321 -367zM344 1280q0 43 31 73.5t74 30.5t73.5 -30.5t30.5 -73.5q0 -45 -30.5 -74.5t-73.5 -29.5t-74 30.5t-31 73.5zM719 1280q0 43 30.5 73.5 t73.5 30.5t74 -30.5t31 -73.5q0 -45 -31 -74.5t-74 -29.5t-73.5 30.5t-30.5 73.5z" />
<glyph unicode="&#xec;" horiz-adv-x="569" d="M92 877q0 4 6 32l11 49q6 25 26 25h273q23 0 27.5 -3t4.5 -13q0 -6 -2 -13.5t-4 -18.5t-4 -20l-168 -796h135q18 -1 19 -13q0 -2 -1 -7t-1 -7l-17 -72q-6 -20 -24 -20h-156q-43 0 -72.5 24.5t-29.5 67.5q0 33 4 47l153 725h-163q-17 1 -17 13zM182 1309q0 6 8 14l101 104 q10 14 22 15q8 0 17 -8l211 -226l4 -4q2 -2 2 -6q0 -8 -8 -16l-45 -45q-10 -10 -21 -11q-8 0 -14 7l-269 163q-8 5 -8 13z" />
<glyph unicode="&#xed;" horiz-adv-x="569" d="M92 877q0 4 6 32l11 49q6 25 26 25h273q23 0 27.5 -3t4.5 -13q0 -6 -2 -13.5t-4 -18.5t-4 -20l-168 -796h135q18 -1 19 -13q0 -2 -1 -7t-1 -7l-17 -72q-6 -20 -24 -20h-156q-43 0 -72.5 24.5t-29.5 67.5q0 33 4 47l153 725h-163q-17 1 -17 13zM213 1190q0 4 10 14 l318 223q8 6 18 7q8 0 19 -15l57 -94q0 -2 3 -7t3 -9q0 -14 -14 -19l-355 -159q-8 -4 -14 -5q-8 0 -16 13l-23 35q-6 10 -6 16z" />
<glyph unicode="&#xee;" horiz-adv-x="569" d="M92 877q0 4 6 32l11 49q6 25 26 25h273q23 0 27.5 -3t4.5 -13q0 -6 -2 -13.5t-4 -18.5t-4 -20l-168 -796h135q18 -1 19 -13q0 -2 -1 -7t-1 -7l-17 -72q-6 -20 -24 -20h-156q-43 0 -72.5 24.5t-29.5 67.5q0 33 4 47l153 725h-163q-17 1 -17 13zM152 1219q0 8 14 18 l248 170q10 10 18 10q2 0 21 -12l192 -186q10 -10 10 -17l-8 -16l-29 -35l-18 -12q-6 0 -20 10l-164 119l-195 -117q-12 -8 -20 -8q-10 0 -15 12l-26 45q-8 13 -8 19z" />
<glyph unicode="&#xef;" horiz-adv-x="569" d="M92 877q0 4 6 32l11 49q6 25 26 25h273q23 0 27.5 -3t4.5 -13q0 -6 -2 -13.5t-4 -18.5t-4 -20l-168 -796h135q18 -1 19 -13q0 -2 -1 -7t-1 -7l-17 -72q-6 -20 -24 -20h-156q-43 0 -72.5 24.5t-29.5 67.5q0 33 4 47l153 725h-163q-17 1 -17 13zM111 1280q0 43 30.5 73.5 t73.5 30.5t73.5 -30.5t30.5 -73.5q0 -45 -30.5 -74.5t-73.5 -29.5t-73.5 30.5t-30.5 73.5zM485 1280q0 43 31 73.5t74 30.5t73.5 -30.5t30.5 -73.5q0 -45 -30.5 -74.5t-73.5 -29.5t-74 30.5t-31 73.5z" />
<glyph unicode="&#xf0;" horiz-adv-x="985" d="M70 309q0 297 147.5 500t337.5 203q111 0 178 -80l4 4q-14 131 -57 272l-178 -51q-6 -2 -15 -2q-10 0 -14 19l-16 49q-4 8 -4 14t20 14l184 56q-2 8 -17 55l-30 90l-14 43q0 14 33 14h76q18 0 33.5 -26.5t30.5 -75.5t22 -61l161 49q4 0 13.5 4t13.5 4q6 0 12 -21l15 -47 q4 -12 4 -16q0 -10 -15 -14l-172 -52q2 -6 13 -47l18 -73q8 -33 20.5 -91.5t19.5 -109.5t13 -117.5t6 -126.5q0 -295 -144 -506t-384 -211q-315 0 -315 338zM225 315q0 -207 178 -206q92 0 165 57t112 146t58.5 181.5t19.5 178.5q0 203 -183 202q-98 0 -171.5 -62 t-109.5 -157.5t-52.5 -181.5t-16.5 -158z" />
<glyph unicode="&#xf1;" horiz-adv-x="1099" d="M100 12q0 4 6 33l142 670q14 76 14 100q0 8 -1 24.5t-1 24.5h-141q-16 0 -17 13q0 4 7 32l10 49q6 25 26 25h211q45 0 45 -135q0 -35 -2 -49l4 -4q154 217 371 217q84 0 135.5 -43t51.5 -121q0 -49 -21 -143l-123 -586h135q18 0 19 -12q0 -2 -1 -7.5t-1 -7.5l-17 -72 q-6 -20 -24 -20h-156q-45 0 -73.5 24.5t-28.5 67.5q0 18 4 47l119 566q12 53 12 81q0 88 -92 88q-78 0 -146.5 -44t-112.5 -110.5t-72 -131t-40 -121.5l-94 -447q-6 -20 -25 -20h-106q-17 0 -17 12zM389 1241q2 31 71.5 92.5t147.5 61.5q51 0 117 -41q63 -43 98 -43 t60.5 20.5t40 41t22.5 20.5q4 0 12 -4l50 -35q12 -12 12 -19q0 -12 -27.5 -47t-81 -69.5t-108.5 -34.5q-51 0 -115 43q-66 41 -102 41q-35 0 -59.5 -21.5t-40 -42t-25.5 -20.5q-8 0 -10 2l-50 39q-12 8 -12 16z" />
<glyph unicode="&#xf2;" horiz-adv-x="985" d="M68 313q0 176 55 331t178 261.5t291 106.5q150 0 231.5 -87t81.5 -259q0 -170 -57 -325t-181 -262.5t-290 -107.5q-309 0 -309 342zM223 317q0 -209 178 -208q115 0 198 95t117 216t34 244q0 106 -49.5 158t-131.5 52q-117 0 -198.5 -92t-114.5 -214t-33 -251zM422 1309 q0 6 8 14l100 104q10 14 23 15q8 0 16 -8l211 -226l2 -4q4 -2 4 -6q0 -8 -8 -16l-45 -45q-10 -10 -20 -11q-8 0 -15 7l-268 163q-8 5 -8 13z" />
<glyph unicode="&#xf3;" horiz-adv-x="985" d="M68 313q0 176 55 331t178 261.5t291 106.5q150 0 231.5 -87t81.5 -259q0 -170 -57 -325t-181 -262.5t-290 -107.5q-309 0 -309 342zM223 317q0 -209 178 -208q115 0 198 95t117 216t34 244q0 106 -49.5 158t-131.5 52q-117 0 -198.5 -92t-114.5 -214t-33 -251zM514 1190 q0 4 10 14l318 223q10 6 18 6.5t19 -14.5l57 -94q0 -2 3 -7t3 -9q0 -14 -14 -19l-355 -160q-8 -4 -14 -4q-8 0 -16 13l-23 35q-6 10 -6 16z" />
<glyph unicode="&#xf4;" horiz-adv-x="985" d="M68 313q0 176 55 331t178 261.5t291 106.5q150 0 231.5 -87t81.5 -259q0 -170 -57 -325t-181 -262.5t-290 -107.5q-309 0 -309 342zM223 317q0 -209 178 -208q115 0 198 95t117 216t34 244q0 106 -49.5 158t-131.5 52q-117 0 -198.5 -92t-114.5 -214t-33 -251zM391 1219 q0 8 15 18l247 170q10 10 19 10q2 0 20 -12l193 -186q10 -10 10 -17l-8 -16l-29 -35l-18 -12q-4 0 -21 10l-164 119l-194 -117q-12 -8 -21 -8q-10 0 -14 12l-27 45q-8 13 -8 19z" />
<glyph unicode="&#xf5;" horiz-adv-x="985" d="M68 313q0 176 55 331t178 261.5t291 106.5q150 0 231.5 -87t81.5 -259q0 -170 -57 -325t-181 -262.5t-290 -107.5q-309 0 -309 342zM223 317q0 -209 178 -208q115 0 198 95t117 216t34 244q0 106 -49.5 158t-131.5 52q-117 0 -198.5 -92t-114.5 -214t-33 -251zM332 1241 q2 31 71.5 92.5t147.5 61.5q51 0 117 -41q63 -43 98 -43t60.5 20.5t40 41t22.5 20.5q4 0 12 -4l49 -35q12 -12 13 -19q0 -12 -28 -47t-81 -69.5t-109 -34.5q-51 0 -114 43q-66 41 -103 41q-35 0 -59.5 -21.5t-39.5 -42t-26 -20.5q-8 0 -10 2l-49 39q-12 8 -12 16z" />
<glyph unicode="&#xf6;" horiz-adv-x="985" d="M68 313q0 176 55 331t178 261.5t291 106.5q150 0 231.5 -87t81.5 -259q0 -170 -57 -325t-181 -262.5t-290 -107.5q-309 0 -309 342zM223 317q0 -209 178 -208q115 0 198 95t117 216t34 244q0 106 -49.5 158t-131.5 52q-117 0 -198.5 -92t-114.5 -214t-33 -251zM381 1280 q0 43 30.5 73.5t73.5 30.5t74 -30.5t31 -73.5q0 -45 -31 -74.5t-74 -29.5t-73.5 30.5t-30.5 73.5zM756 1280q0 43 30.5 73.5t73.5 30.5t74 -30.5t31 -73.5q0 -45 -31 -74.5t-74 -29.5t-73.5 30.5t-30.5 73.5z" />
<glyph unicode="&#xf7;" d="M45 475v90q0 18 4 23.5t23 5.5h874q18 0 23.5 -5t5.5 -24v-90q0 -18 -5 -23.5t-24 -5.5h-874q-18 0 -22.5 5.5t-4.5 23.5zM395 166q0 47 34 81t81 34t81 -34t34 -81t-34 -81t-81 -34t-81 34t-34 81zM395 874.5q0 47.5 34 81t81 33.5t81 -33.5t34 -81t-34 -81t-81 -33.5 t-81 33.5t-34 81z" />
<glyph unicode="&#xf8;" horiz-adv-x="985" d="M25 -39q0 6 4 10l88 123q-49 84 -49 219q0 176 55 331t178 261.5t291 106.5q109 0 164 -37l75 106q10 10 13 11l12 -7l57 -41q8 -8 9 -14q0 -4 -4 -12l-80 -111q68 -94 67 -241q0 -170 -57 -325t-181 -262.5t-290 -107.5q-106 0 -189 49l-77 -108q-10 -10 -14.5 -10 t-10.5 6l-53 39q-8 8 -8 14zM223 317q0 -63 6 -90l430 633q-25 18 -90 19q-104 0 -185 -87t-121 -213.5t-40 -261.5zM279 131q53 -27 122 -27q115 0 198 96.5t117 218.5t34 245q0 90 -19 131z" />
<glyph unicode="&#xf9;" horiz-adv-x="1099" d="M100 877q0 4 6 32l11 49q6 25 26 25h277q14 -2 14 -14q0 -6 -5 -23.5t-5 -25.5l-117 -572q-23 -82 -22 -125q0 -115 104 -114q68 0 137.5 40.5t102.5 81.5l20 30l18 27q7 11 14 29.5t12 27.5t11.5 30.5t8.5 27t8 30t6 26.5t6 28l6 29l95 432q4 16 24 21l98 22q2 0 11.5 3 t13.5 3q8 0 8 -8q0 -2 -4 -22l-151 -699q-14 -76 -15 -100q0 -8 1 -24.5t1 -24.5h142q16 0 16 -13q0 -4 -6 -32l-10 -49q-6 -25 -27 -25h-117q-70 0 -93.5 19.5t-31.5 60.5q-4 20 -4 84h-4q-152 -193 -358 -193q-80 0 -139.5 56.5t-59.5 158.5q0 16 3 36t8 44.5t7 38.5 l119 559h-149q-17 1 -17 13zM479 1309q0 6 8 14l101 104q10 14 22 15q8 0 17 -8l211 -226l2 -4q4 -2 4 -6q0 -8 -8 -16l-45 -45q-10 -10 -21 -11q-8 0 -14 7l-269 163q-8 5 -8 13z" />
<glyph unicode="&#xfa;" horiz-adv-x="1099" d="M100 877q0 4 6 32l11 49q6 25 26 25h277q14 -2 14 -14q0 -6 -5 -23.5t-5 -25.5l-117 -572q-23 -82 -22 -125q0 -115 104 -114q68 0 137.5 40.5t102.5 81.5l20 30l18 27q7 11 14 29.5t12 27.5t11.5 30.5t8.5 27t8 30t6 26.5t6 28l6 29l95 432q4 16 24 21l98 22q2 0 11.5 3 t13.5 3q8 0 8 -8q0 -2 -4 -22l-151 -699q-14 -76 -15 -100q0 -8 1 -24.5t1 -24.5h142q16 0 16 -13q0 -4 -6 -32l-10 -49q-6 -25 -27 -25h-117q-70 0 -93.5 19.5t-31.5 60.5q-4 20 -4 84h-4q-152 -193 -358 -193q-80 0 -139.5 56.5t-59.5 158.5q0 16 3 36t8 44.5t7 38.5 l119 559h-149q-17 1 -17 13zM571 1190q0 4 11 14l317 223q10 6 18.5 6.5t18.5 -14.5l57 -94q0 -2 3 -7t3 -9q0 -14 -14 -19l-354 -159q-8 -4 -15 -5q-8 0 -16 13l-22 35q-7 10 -7 16z" />
<glyph unicode="&#xfb;" horiz-adv-x="1099" d="M100 877q0 4 6 32l11 49q6 25 26 25h277q14 -2 14 -14q0 -6 -5 -23.5t-5 -25.5l-117 -572q-23 -82 -22 -125q0 -115 104 -114q68 0 137.5 40.5t102.5 81.5l20 30l18 27q7 11 14 29.5t12 27.5t11.5 30.5t8.5 27t8 30t6 26.5t6 28l6 29l95 432q4 16 24 21l98 22q2 0 11.5 3 t13.5 3q8 0 8 -8q0 -2 -4 -22l-151 -699q-14 -76 -15 -100q0 -8 1 -24.5t1 -24.5h142q16 0 16 -13q0 -4 -6 -32l-10 -49q-6 -25 -27 -25h-117q-70 0 -93.5 19.5t-31.5 60.5q-4 20 -4 84h-4q-152 -193 -358 -193q-80 0 -139.5 56.5t-59.5 158.5q0 16 3 36t8 44.5t7 38.5 l119 559h-149q-17 1 -17 13zM438 1219q0 8 15 18l247 170q10 10 19 10q2 0 20 -12l193 -186q10 -10 10 -17l-8 -16l-29 -35l-18 -12q-6 0 -21 10l-164 119l-194 -117q-12 -8 -21 -8q-10 0 -14 12l-27 45q-8 13 -8 19z" />
<glyph unicode="&#xfc;" horiz-adv-x="1099" d="M100 877q0 4 6 32l11 49q6 25 26 25h277q14 -2 14 -14q0 -6 -5 -23.5t-5 -25.5l-117 -572q-23 -82 -22 -125q0 -115 104 -114q68 0 137.5 40.5t102.5 81.5l20 30l18 27q7 11 14 29.5t12 27.5t11.5 30.5t8.5 27t8 30t6 26.5t6 28l6 29l95 432q4 16 24 21l98 22q2 0 11.5 3 t13.5 3q8 0 8 -8q0 -2 -4 -22l-151 -699q-14 -76 -15 -100q0 -8 1 -24.5t1 -24.5h142q16 0 16 -13q0 -4 -6 -32l-10 -49q-6 -25 -27 -25h-117q-70 0 -93.5 19.5t-31.5 60.5q-4 20 -4 84h-4q-152 -193 -358 -193q-80 0 -139.5 56.5t-59.5 158.5q0 16 3 36t8 44.5t7 38.5 l119 559h-149q-17 1 -17 13zM408 1280q0 43 30.5 73.5t73.5 30.5t73.5 -30.5t30.5 -73.5q0 -45 -30.5 -74.5t-73.5 -29.5t-73.5 30.5t-30.5 73.5zM782 1280q0 43 31 73.5t74 30.5t73.5 -30.5t30.5 -73.5q0 -45 -30.5 -74.5t-73.5 -29.5t-74 30.5t-31 73.5z" />
<glyph unicode="&#xfd;" horiz-adv-x="948" d="M-131 -344q0 4 10 20l47 78q6 10 17 10q4 0 57 -28.5t104 -28.5q123 0 213 164l70 129h-74q-23 0 -24 20l-123 844h-117q-18 0 -18 15q0 2 1 6t1 6l14 70q6 23 27 22h217q18 0 20 -18l115 -885h4l393 905q4 12 13 12q4 0 16 -4l96 -39q10 -4 10 -12q0 -4 -2 -9t-2 -7 l-360 -805q-4 -10 -29 -67l-38 -86q-13 -30 -43.5 -88t-56.5 -94t-65.5 -82t-77.5 -71.5t-89.5 -44t-104.5 -18.5q-76 0 -148.5 31.5t-72.5 54.5zM496 1190q0 4 10 14l317 223q8 6 19 7q8 0 18 -15l58 -94q0 -2 3 -7t3 -9q0 -14 -15 -19l-354 -159q-8 -4 -14 -5q-8 0 -17 13 l-22 35q-6 10 -6 16z" />
<glyph unicode="&#xfe;" horiz-adv-x="985" d="M-152 -401q0 4 7 32l10 50q6 25 26 24h107l346 1645h-143q-16 0 -17 12q0 4 6 33l11 49q6 25 26 24h271q14 -2 14 -14q0 -6 -5 -23.5t-5 -25.5l-107 -514l4 -4q39 37 69 59.5t89 44t125 21.5q231 0 231 -303q0 -184 -49 -347t-162.5 -277t-271.5 -114q-100 0 -215 68 l-68 -334h142q18 0 18 -12q0 -8 -4 -25l-14 -61q-2 -20 -25 -21h-399q-17 1 -17 13zM244 170q4 -2 20.5 -12.5t22.5 -13.5t20.5 -11t24.5 -10t25.5 -7t32 -6t34.5 -1q90 0 158.5 60t104.5 155.5t53.5 190.5t17.5 185q0 174 -113 174q-123 0 -211 -107.5t-121 -268.5z" />
<glyph unicode="&#xff;" horiz-adv-x="948" d="M-131 -344q0 4 10 20l47 78q6 10 17 10q4 0 57 -28.5t104 -28.5q123 0 213 164l70 129h-74q-23 0 -24 20l-123 844h-117q-18 0 -18 15q0 2 1 6t1 6l14 70q6 23 27 22h217q18 0 20 -18l115 -885h4l393 905q4 12 13 12q4 0 16 -4l96 -39q10 -4 10 -12q0 -4 -2 -9t-2 -7 l-360 -805q-4 -10 -29 -67l-38 -86q-13 -30 -43.5 -88t-56.5 -94t-65.5 -82t-77.5 -71.5t-89.5 -44t-104.5 -18.5q-76 0 -148.5 31.5t-72.5 54.5zM332 1280q0 43 30.5 73.5t73.5 30.5t74 -30.5t31 -73.5q0 -45 -31 -74.5t-74 -29.5t-73.5 30.5t-30.5 73.5zM707 1280 q0 43 30.5 73.5t73.5 30.5t73.5 -30.5t30.5 -73.5q0 -45 -30.5 -74.5t-73.5 -29.5t-73.5 30.5t-30.5 73.5z" />
<glyph unicode="&#x152;" horiz-adv-x="1593" d="M104 408q0 115 20.5 244.5t70 270t119 252t180 184.5t241.5 73q147 0 232 -109l12 57q4 23 31 23h628q20 0 21 -14q0 -4 -2 -10.5t-2 -10.5l-58 -270q-6 -23 -24 -23h-94q-16 0 -17 10q0 4 1 10.5t1 8.5l33 162h-387l-100 -469h424q20 0 20 -17q0 -10 -2 -14l-16 -82 q-4 -25 -31 -25h-424l-113 -522h404l41 195q4 23 26 22h95q16 0 16 -12q0 -10 -2 -14l-64 -303q-6 -25 -30 -25h-643q-20 0 -21 12q0 10 2 19l13 55l-5 4q-119 -119 -284 -119q-312 1 -312 437zM272 401q0 -154 45 -223t142 -69q135 0 276 120l201 945q-90 121 -217 120 q-98 -2 -179 -73.5t-129.5 -176t-81 -231.5t-45 -230.5t-12.5 -181.5z" />
<glyph unicode="&#x153;" horiz-adv-x="1517" d="M68 309q0 174 56 331t177 264.5t281 107.5q221 0 286 -199q127 199 326 199q133 0 201.5 -72t68.5 -190q0 -57 -16 -105.5t-39 -83.5t-63.5 -62.5t-74.5 -45t-88.5 -29.5t-88 -18.5t-89 -9.5t-78 -4t-67.5 -1q0 -10 -1 -26.5t-1 -24.5q0 -225 170 -225q78 0 142.5 24.5 t100.5 49t44 24.5q10 0 18 -12l49 -74q4 -8 4 -10q0 -14 -51 -48t-142 -66t-179 -32q-215 0 -283 197q-43 -68 -136 -132.5t-226 -64.5q-301 0 -301 338zM223 315q0 -207 172 -206q113 0 195 96t115.5 219t33.5 242q0 204 -178 208q-113 0 -192.5 -94t-112.5 -216t-33 -249z M879 518q440 0 440 225q0 66 -38 104t-110 38q-216 0 -292 -367z" />
<glyph unicode="&#x178;" horiz-adv-x="985" d="M131 1288q0 4 6 33l17 61q6 20 24 21h363q16 0 16 -12q0 -4 -6 -33l-16 -62q-6 -20 -25 -20h-113l113 -432q14 -53 18 -127h4q31 59 70 121l279 438h-123q-16 0 -17 12q0 4 7 33l16 61q6 20 24 21h383q16 0 17 -12q0 -4 -6 -33l-17 -62q-6 -20 -24 -20h-78l-475 -682 l-99 -467h144q16 0 16 -14q0 -2 -1 -7.5t-1 -7.5l-16 -78q-4 -20 -25 -20h-450q-16 0 -17 14q0 2 1 7.5t1 7.5l17 77q6 20 24 21h148l96 467l-186 682h-93q-16 0 -16 12zM412 1683q0 43 30.5 74t73.5 31t74 -31t31 -74q0 -45 -31 -74.5t-74 -29.5t-73.5 30.5t-30.5 73.5z M786 1683q0 43 31 74t74 31t73.5 -31t30.5 -74q0 -45 -30.5 -74.5t-73.5 -29.5t-74 30.5t-31 73.5z" />
<glyph unicode="&#x2c6;" horiz-adv-x="681" d="M270 1219q0 8 15 18l247 170q10 10 19 10q2 0 20 -12l193 -186q10 -10 10 -17l-8 -16l-29 -35l-18 -12q-6 0 -21 10l-163 119l-195 -117q-12 -8 -21 -8q-10 0 -14 12l-26 45q-9 13 -9 19z" />
<glyph unicode="&#x2dc;" horiz-adv-x="681" d="M180 1241q2 31 72 92.5t147 61.5q51 0 117 -41q63 -43 98 -43t60.5 20.5t40 41t22.5 20.5q4 0 13 -4l49 -35q12 -12 12 -19q0 -12 -27.5 -47t-81 -69.5t-108.5 -34.5q-51 0 -115 43q-66 41 -102 41q-35 0 -59.5 -21.5t-40 -42t-25.5 -20.5q-8 0 -10 2l-49 39 q-13 8 -13 16z" />
<glyph unicode="&#x2013;" d="M57 473q0 2 6 33l17 59q6 25 31 25h854q20 0 20 -17q0 -2 -6 -32l-16 -60q-6 -25 -31 -24h-854q-21 0 -21 16z" />
<glyph unicode="&#x2014;" horiz-adv-x="2048" d="M57 473q0 2 6 33l17 59q6 25 31 25h1880q20 0 20 -17q0 -2 -6 -32l-16 -60q-6 -25 -31 -24h-1880q-21 0 -21 16z" />
<glyph unicode="&#x2018;" horiz-adv-x="417" d="M143 995q0 10 9 23l301 438q12 12 16 12t9 -2t7 -2l43 -20q2 0 6.5 -2t6.5 -5t2 -7l-6 -19l-168 -407q-8 -20 -31 -21h-174q-21 0 -21 12z" />
<glyph unicode="&#x2019;" horiz-adv-x="417" d="M141 1022l6 18l168 408q8 20 31 20h174q20 0 21 -12q0 -10 -9 -22l-301 -439q-12 -12 -16 -12t-9 2t-7 2l-43 21q-2 0 -6.5 2t-6.5 5t-2 7z" />
<glyph unicode="&#x201a;" horiz-adv-x="417" d="M-96 -213l6 18l168 408q8 20 31 20h174q20 0 20 -12q0 -10 -8 -22l-301 -439q-12 -12 -16.5 -12t-9.5 2t-7 2l-43 21q-2 0 -6 2t-6 5t-2 7z" />
<glyph unicode="&#x201c;" d="M266 995q0 10 8 23l301 438q12 12 16.5 12t9.5 -2t7 -2l43 -20q2 0 6.5 -2t6.5 -5t2 -7l-7 -19l-167 -407q-8 -20 -31 -21h-174q-21 0 -21 12zM645 995q0 10 8 23l301 438q12 12 16.5 12t9.5 -2t7 -2l43 -20q2 0 6 -2t6 -5t2 -7l-6 -19l-168 -407q-8 -20 -30 -21h-174 q-21 0 -21 12z" />
<glyph unicode="&#x201d;" d="M256 1022l6 18l168 408q8 20 31 20h174q20 0 20 -12q0 -10 -8 -22l-301 -439q-12 -12 -16 -12t-9.5 2t-7.5 2l-43 21q-2 0 -6 2t-6 5t-2 7zM635 1022l6 18l168 408q8 20 31 20h174q20 0 20 -12q0 -10 -8 -22l-301 -439q-12 -12 -16 -12t-9.5 2t-7.5 2l-43 21q-2 0 -6 2 t-6 5t-2 7z" />
<glyph unicode="&#x201e;" d="M31 -213q0 6 4 18l170 408q8 20 31 20h174q20 0 20 -14q0 -8 -8 -20l-301 -439q-12 -12 -16.5 -12t-16.5 4l-43 21q-14 6 -14 14zM410 -213q0 8 6 18l168 408q8 20 30 20h174q20 0 21 -14q0 -8 -8 -20l-301 -439q-8 -12 -17 -12q-4 0 -16 4l-43 21q-14 6 -14 14z" />
<glyph unicode="&#x2022;" d="M182 737q0 154 108.5 263.5t262.5 109.5q152 0 261.5 -109.5t109.5 -263.5q0 -152 -109.5 -260t-261.5 -108q-154 0 -262.5 108t-108.5 260z" />
<glyph unicode="&#x2026;" horiz-adv-x="2048" d="M125 131q0 53 38 92t93 39t93 -39t38 -92q0 -55 -38 -93t-93 -38t-93 39t-38 92zM809 131q0 53 38 92t93 39q53 0 92 -39t39 -92q0 -55 -39 -93t-92 -38q-55 0 -93 39t-38 92zM1493 131q0 53 39 92t92 39t92 -39t39 -92t-39 -92t-92 -39t-92 39t-39 92z" />
<glyph unicode="&#x2039;" horiz-adv-x="681" d="M104 487q0 4 15 19l434 434q16 16 22 16l19 -6l61 -39q10 -10 11 -16q0 -8 -9 -16l-362 -400l174 -385q6 -12 6 -16q0 -14 -18 -21l-58 -26q-16 -8 -20 -8q-10 0 -14 12l-252 434q-9 8 -9 18z" />
<glyph unicode="&#x203a;" horiz-adv-x="681" d="M2 84q0 8 8 16l363 400l-174 385q-6 12 -6 16q0 14 18 21l57 26q16 8 21 8q10 0 14 -12l252 -434q8 -8 8 -18q0 -4 -14 -19l-434 -434q-16 -16 -23 -16l-18 6l-62 39q-10 10 -10 16z" />
<glyph unicode="&#x20ac;" d="M23 551q0 8 2 16l6 35q4 23 43 23h129q8 47 22 118h-133q-25 0 -24 11q0 8 2 16l6 35q4 23 43 22h131q72 229 208 374t339 145q115 0 212 -45.5t97 -88.5q0 -12 -4 -24l-45 -197q-6 -20 -25 -20h-92q-16 0 -16 12q0 4 4 21l35 153q-88 51 -187 51q-244 0 -366 -381h348 q25 0 24 -10q0 -8 -2 -16l-6 -35q-4 -23 -43 -23h-346q-14 -55 -25 -118h353q25 0 24 -11q0 -8 -2 -16l-6 -35q-4 -23 -43 -22h-338q-10 -96 -10 -158q0 -274 217 -274q129 0 205 69l37 158q6 20 24 20h88q18 0 19 -16q0 -6 -1 -11t-3 -12.5t-2 -11.5l-37 -172 q-6 -35 -21 -43q-178 -119 -340 -119q-166 0 -254 111t-88 307q0 80 8 152h-143q-24 0 -24 10z" />
<glyph unicode="&#x2122;" horiz-adv-x="1441" d="M248 1194l10 209h479l11 -209h-37l-13.5 35.5t-12.5 33t-11 25t-13.5 23.5t-16.5 17t-23.5 16.5t-30 10.5t-39.5 9v-391q0 -61 17.5 -74.5t80.5 -19.5v-37h-313v37q76 6 90 24q18 20 18 70v391q-25 -4 -43 -9t-33.5 -16.5t-23.5 -16.5t-18.5 -25.5t-12.5 -25.5t-13 -37 t-15 -40h-37zM774 842v37q33 6 45 9t26.5 12t18.5 25.5t4 47.5v319q0 29 -1 42.5t-12 20.5t-18.5 8t-37.5 3v37h205l112 -371h4l129 371h221v-37q-29 -4 -34.5 -5t-22 -6t-18.5 -13.5t-6.5 -22.5t-4.5 -39v-307q0 -59 13.5 -73.5t62.5 -20.5v-37h-254v37q31 6 42.5 11 t20.5 24.5t9 58.5v377h-4l-172 -508h-33l-149 489h-5v-358q0 -57 11.5 -71.5t48.5 -22.5v-37h-201z" />
<glyph unicode="&#xe000;" horiz-adv-x="1000" d="M0 1000h1000v-1000h-1000v1000z" />
<glyph unicode="&#xfb01;" horiz-adv-x="1138" d="M-270 -379q0 10 2 14l28 84q4 12 15 13q2 0 21.5 -5.5t49 -9.5t56.5 -4q59 0 101 24.5t64.5 69t32 73t17.5 71.5l176 913h-143q-16 0 -17 13q0 4 6 32l11 49q6 25 26 25h143l41 197q53 303 304 303q55 0 112.5 -15.5t57.5 -29.5l-3 -2v-4l-36 -89q-4 -10 -15 -10l-43 15 q-45 16 -90 16q-39 0 -66.5 -19.5t-42 -55.5t-21.5 -62.5t-13 -65.5l-37 -178h520q20 0 26.5 -3t6.5 -13q0 -6 -2 -13.5t-4 -18.5t-4 -20l-168 -796h135q18 -1 18 -13q0 -2 -1 -7t-1 -7l-16 -72q-6 -20 -25 -20h-155q-43 0 -73 24.5t-30 67.5q0 33 4 47l154 725h-412 l-174 -921q-10 -51 -19 -86t-37 -91.5t-64.5 -92t-104.5 -63.5t-156 -28q-55 0 -105 11.5t-50 27.5zM915 1343.5q0 40.5 32 72.5t73 32t72.5 -32t31.5 -72.5t-31.5 -72.5t-72.5 -32t-73 32t-32 72.5z" />
<glyph unicode="&#xfb02;" horiz-adv-x="1138" d="M-270 -379q0 10 2 14l28 84q4 12 15 13q2 0 21.5 -5.5t49 -9.5t56.5 -4q59 0 101 24.5t64.5 69t32 73t17.5 71.5l176 913h-143q-16 0 -17 13q0 4 6 32l11 49q6 25 26 25h143l41 197q10 49 17.5 77.5t31 76.5t55.5 76t90 50.5t136 22.5q61 0 111.5 -9.5t116.5 -31.5 l63 -21l127 27q6 2 10 -3t4 -11.5t-5 -23.5t-5 -26l-215 -1011q-33 -141 -33 -207q0 -68 64 -68q31 0 65.5 17.5t38.5 17.5q12 0 15 -14l10 -58q0 -4 2 -12t2 -10q0 -23 -60.5 -45.5t-121.5 -22.5q-76 0 -121 40t-45 116q0 61 37 246l192 909q-98 82 -248 82q-23 0 -43 -4 t-35.5 -9t-30 -16.5t-22.5 -18.5t-17 -24.5t-13.5 -24.5t-10.5 -28.5t-7 -27t-6 -27t-5 -23.5l-37 -178h289q16 0 16 -12q0 -4 -10 -33l-19 -49q-10 -25 -26 -25h-277l-174 -921q-10 -51 -19 -86t-37 -91.5t-64.5 -92t-104.5 -63.5t-156 -28q-55 0 -105 11.5t-50 27.5z" />
<glyph unicode="&#xfb03;" horiz-adv-x="1859" d="M-270 -379q0 10 2 14l28 84q4 12 15 13q2 0 21.5 -5.5t49 -9.5t56.5 -4q59 0 101 24.5t64.5 68.5t32 73t17.5 72l176 913h-143q-16 0 -17 13q0 4 6 32l11 49q6 25 26 25h143l41 197q10 49 17.5 77.5t31 76.5t55.5 76t90 50.5t136 22.5q74 0 146.5 -22.5t72.5 -41.5v-2 l-2 -4l-37 -88q-6 -10 -14 -10l-65 24q-63 25 -117 25q-20 0 -39 -4t-32 -9t-26 -18l-21 -18q-7 -6 -15.5 -23.5t-12.5 -24.5t-9 -28.5t-6 -27.5l-5 -26q-4 -22 -4 -24l-37 -178h289q16 0 16 -12q0 -4 -10 -33l-19 -49q-10 -25 -26 -25h-277l-174 -921q-10 -51 -19 -86 t-37 -91.5t-64.5 -92t-104.5 -63.5t-156 -28q-55 0 -105 11.5t-50 27.5zM375 -379q0 10 2 14l29 84q4 12 14 13q2 0 21.5 -5.5t49 -9.5t56.5 -4q59 0 101 24.5t64.5 68.5t32 73t17.5 72l176 913h-143q-16 0 -17 13q0 4 6 32l11 49q6 25 26 25h144l41 197q10 49 17 77.5 t30.5 76.5t55.5 76t90 50.5t136 22.5q74 0 146.5 -22.5t72.5 -41.5v-2l-2 -4l-36 -88q-6 -10 -15 -10l-65 24q-63 25 -117 25q-20 0 -38.5 -4t-32 -9t-26.5 -18l-21 -18q-7 -6 -15 -23.5t-12.5 -24.5t-9.5 -28.5t-6 -27.5l-5 -26q-4 -22 -4 -24l-37 -178h289q16 0 16 -12 q0 -4 -10 -33l-18 -49q-10 -25 -27 -25h-277l-174 -921q-10 -51 -19 -86t-37 -91.5t-64.5 -92t-104.5 -63.5t-156 -28q-55 0 -105 11.5t-50 27.5zM1382 877q0 4 7 32l10 49q6 25 26 25h273q23 0 28 -3t5 -13q0 -6 -2.5 -13.5t-4.5 -18.5t-4 -20l-168 -796h136q18 0 18 -13 q0 -2 -1 -7t-1 -7l-16 -72q-6 -20 -25 -20h-156q-43 0 -72.5 24.5t-29.5 67.5q0 33 4 47l154 725h-164q-17 1 -17 13zM1618 1354q0 47 34 80.5t81 33.5q45 0 79.5 -33.5t34.5 -80.5t-33.5 -81t-80.5 -34t-81 34t-34 81z" />
<glyph unicode="&#xfb04;" horiz-adv-x="1820" d="M-270 -379q0 10 2 14l28 84q4 12 15 13q2 0 21.5 -5.5t49 -9.5t56.5 -4q59 0 101 24.5t64.5 68.5t32 73t17.5 72l176 913h-143q-16 0 -17 13q0 4 6 32l11 49q6 25 26 25h143l41 197q10 49 17.5 77.5t31 76.5t55.5 76t90 50.5t136 22.5q74 0 146.5 -22.5t72.5 -41.5v-2 l-2 -4l-37 -88q-6 -10 -14 -10l-65 24q-63 25 -117 25q-20 0 -39 -4t-32 -9t-26 -18l-21 -18q-7 -6 -15.5 -23.5t-12.5 -24.5t-9 -28.5t-6 -27.5l-5 -26q-4 -22 -4 -24l-37 -178h289q16 0 16 -12q0 -4 -10 -33l-19 -49q-10 -25 -26 -25h-277l-174 -921q-10 -51 -19 -86 t-37 -91.5t-64.5 -92t-104.5 -63.5t-156 -28q-55 0 -105 11.5t-50 27.5zM375 -379q0 10 2 14l29 84q4 12 14 13q2 0 21.5 -5.5t49 -9.5t56.5 -4q59 0 101 24.5t64.5 68.5t32 73t17.5 72l176 913h-143q-16 0 -17 13q0 4 6 32l11 49q6 25 26 25h144l41 197q10 49 17 77.5 t30.5 76.5t55.5 76t90 50.5t136 22.5q74 0 146.5 -22.5t72.5 -41.5v-2l-2 -4l-36 -88q-6 -10 -15 -10l-65 24q-63 25 -117 25q-20 0 -38.5 -4t-32 -9t-26.5 -18l-21 -18q-7 -6 -15 -23.5t-12.5 -24.5t-9.5 -28.5t-6 -27.5l-5 -26q-4 -22 -4 -24l-37 -178h289q16 0 16 -12 q0 -4 -10 -33l-18 -49q-10 -25 -27 -25h-277l-174 -921q-10 -51 -19 -86t-37 -91.5t-64.5 -92t-104.5 -63.5t-156 -28q-55 0 -105 11.5t-50 27.5zM1389 127q0 61 36 246l209 977h-159q-16 0 -17 12q0 4 6 33l11 49q6 25 26 24h287q14 -2 14 -14q0 -6 -5 -23.5t-5 -25.5 l-219 -1032q-33 -141 -33 -207q0 -68 64 -68q31 0 65.5 17.5t38.5 17.5q12 0 14 -14l11 -58q0 -4 2 -12t2 -10q0 -23 -60.5 -45.5t-122.5 -22.5q-76 0 -120.5 40t-44.5 116z" />
</font>
</defs>
</svg>
